<?xml version="1.0" encoding="UTF-8" standalone="no"?>
<!DOCTYPE svg PUBLIC "-//W3C//DTD SVG 1.1//EN"
 "http://www.w3.org/Graphics/SVG/1.1/DTD/svg11.dtd">
<!-- Generated by graphviz version 2.44.1 (20200629.0800)
 -->
<!-- Title: ML_Math Pages: 1 -->
<svg width="2120pt" height="408pt"
 viewBox="0.00 0.00 2120.00 408.00" xmlns="http://www.w3.org/2000/svg" xmlns:xlink="http://www.w3.org/1999/xlink">
<g id="graph0" class="graph" transform="scale(1 1) rotate(0) translate(4 404)">
<title>ML_Math</title>
<polygon fill="white" stroke="transparent" points="-4,4 -4,-404 2116,-404 2116,4 -4,4"/>
<g id="clust4" class="cluster">
<title>cluster_dqn</title>
<polygon fill="none" stroke="black" stroke-dasharray="5,2" points="8,-154 8,-323 1724,-323 1724,-154 8,-154"/>
<text text-anchor="middle" x="866" y="-307.8" font-family="Times New Roman,serif" font-size="14.00">DQN</text>
</g>
<g id="clust5" class="cluster">
<title>cluster_pg</title>
<polygon fill="none" stroke="black" stroke-dasharray="5,2" points="1732,-8 1732,-229 2104,-229 2104,-8 1732,-8"/>
<text text-anchor="middle" x="1918" y="-213.8" font-family="Times New Roman,serif" font-size="14.00">Policy Gradient</text>
</g>
<!-- a1993 -->
<g id="node1" class="node">
<title>a1993</title>
<polygon fill="none" stroke="black" points="1105,-400 755,-400 755,-364 1105,-364 1105,-400"/>
<text text-anchor="middle" x="930" y="-378.3" font-family="Times New Roman,serif" font-size="14.00">Reinforcement Learning for Robots Using Neural Networks</text>
</g>
<!-- a2013 -->
<g id="node2" class="node">
<title>a2013</title>
<polygon fill="none" stroke="black" points="1072.5,-292 787.5,-292 787.5,-256 1072.5,-256 1072.5,-292"/>
<text text-anchor="middle" x="930" y="-270.3" font-family="Times New Roman,serif" font-size="14.00">Playing Atari with Deep Reinforcement Learning</text>
</g>
<!-- a1993&#45;&gt;a2013 -->
<g id="edge1" class="edge">
<title>a1993&#45;&gt;a2013</title>
<path fill="none" stroke="darkgreen" stroke-dasharray="5,2" d="M930,-363.97C930,-347.38 930,-321.88 930,-302.43"/>
<polygon fill="darkgreen" stroke="darkgreen" points="933.5,-302.34 930,-292.34 926.5,-302.34 933.5,-302.34"/>
<text text-anchor="middle" x="1011.5" y="-334.8" font-family="Times New Roman,serif" font-size="14.00">experience replay mechanism</text>
</g>
<!-- a2015 -->
<g id="node3" class="node">
<title>a2015</title>
<polygon fill="none" stroke="black" points="332,-198 16,-198 16,-162 332,-162 332,-198"/>
<text text-anchor="middle" x="174" y="-176.3" font-family="Times New Roman,serif" font-size="14.00">Deep Reinforcement Learning with Double Q&#45;learning</text>
</g>
<!-- a2013&#45;&gt;a2015 -->
<g id="edge2" class="edge">
<title>a2013&#45;&gt;a2015</title>
<path fill="none" stroke="darkgreen" stroke-dasharray="5,2" d="M787.35,-270.52C667.42,-266.49 491.9,-256.03 341,-229 304.54,-222.47 264.63,-211.16 232.97,-201.16"/>
<polygon fill="darkgreen" stroke="darkgreen" points="234.02,-197.82 223.43,-198.1 231.88,-204.48 234.02,-197.82"/>
</g>
<!-- a2016 -->
<g id="node4" class="node">
<title>a2016</title>
<polygon fill="none" stroke="black" points="532,-198 350,-198 350,-162 532,-162 532,-198"/>
<text text-anchor="middle" x="441" y="-176.3" font-family="Times New Roman,serif" font-size="14.00">Prioritized Experience Replay</text>
</g>
<!-- a2013&#45;&gt;a2016 -->
<g id="edge3" class="edge">
<title>a2013&#45;&gt;a2016</title>
<path fill="none" stroke="darkgreen" stroke-dasharray="5,2" d="M787.28,-268.1C713,-262.73 621.36,-251.67 542,-229 520.44,-222.84 497.78,-212.47 479.4,-202.94"/>
<polygon fill="darkgreen" stroke="darkgreen" points="480.95,-199.8 470.47,-198.21 477.67,-205.99 480.95,-199.8"/>
</g>
<!-- b2016 -->
<g id="node5" class="node">
<title>b2016</title>
<polygon fill="none" stroke="black" points="929.5,-198 550.5,-198 550.5,-162 929.5,-162 929.5,-198"/>
<text text-anchor="middle" x="740" y="-176.3" font-family="Times New Roman,serif" font-size="14.00">Dueling Network Architectures for Deep Reinforcement Learning</text>
</g>
<!-- a2013&#45;&gt;b2016 -->
<g id="edge4" class="edge">
<title>a2013&#45;&gt;b2016</title>
<path fill="none" stroke="darkgreen" stroke-dasharray="5,2" d="M894.71,-255.91C863.61,-240.85 818.16,-218.85 784.57,-202.58"/>
<polygon fill="darkgreen" stroke="darkgreen" points="785.95,-199.36 775.43,-198.15 782.9,-205.66 785.95,-199.36"/>
</g>
<!-- c2016 -->
<g id="node6" class="node">
<title>c2016</title>
<polygon fill="none" stroke="black" points="2085,-198 1743,-198 1743,-162 2085,-162 2085,-198"/>
<text text-anchor="middle" x="1914" y="-176.3" font-family="Times New Roman,serif" font-size="14.00">Asynchronous Methods for Deep Reinforcement Learning</text>
</g>
<!-- a2013&#45;&gt;c2016 -->
<g id="edge9" class="edge">
<title>a2013&#45;&gt;c2016</title>
<path fill="none" stroke="darkgreen" stroke-dasharray="5,2" d="M1072.51,-273.59C1232.83,-272.3 1500.56,-264.26 1728,-229 1769.12,-222.62 1814.34,-211.06 1849.9,-200.88"/>
<polygon fill="darkgreen" stroke="darkgreen" points="1851.03,-204.2 1859.66,-198.05 1849.08,-197.48 1851.03,-204.2"/>
</g>
<!-- a2017 -->
<g id="node7" class="node">
<title>a2017</title>
<polygon fill="none" stroke="black" points="1294.5,-198 947.5,-198 947.5,-162 1294.5,-162 1294.5,-198"/>
<text text-anchor="middle" x="1121" y="-176.3" font-family="Times New Roman,serif" font-size="14.00">Deep Recurrent Q&#45;Learning for Partially Observable MDPs</text>
</g>
<!-- a2013&#45;&gt;a2017 -->
<g id="edge5" class="edge">
<title>a2013&#45;&gt;a2017</title>
<path fill="none" stroke="darkgreen" stroke-dasharray="5,2" d="M965.48,-255.91C996.74,-240.85 1042.43,-218.85 1076.2,-202.58"/>
<polygon fill="darkgreen" stroke="darkgreen" points="1077.9,-205.65 1085.39,-198.15 1074.86,-199.34 1077.9,-205.65"/>
</g>
<!-- b2017 -->
<g id="node8" class="node">
<title>b2017</title>
<polygon fill="none" stroke="black" points="1715.5,-198 1312.5,-198 1312.5,-162 1715.5,-162 1715.5,-198"/>
<text text-anchor="middle" x="1514" y="-176.3" font-family="Times New Roman,serif" font-size="14.00">Rainbow: Combining Improvements in Deep Reinforcement Learning</text>
</g>
<!-- a2013&#45;&gt;b2017 -->
<g id="edge6" class="edge">
<title>a2013&#45;&gt;b2017</title>
<path fill="none" stroke="darkgreen" stroke-dasharray="5,2" d="M1072.6,-259.87C1142.58,-252.49 1227.98,-242.12 1304,-229 1348.68,-221.29 1398.13,-210.12 1437.82,-200.49"/>
<polygon fill="darkgreen" stroke="darkgreen" points="1438.81,-203.85 1447.69,-198.08 1437.15,-197.05 1438.81,-203.85"/>
</g>
<!-- c2017 -->
<g id="node9" class="node">
<title>c2017</title>
<polygon fill="none" stroke="black" points="2018,-125 1814,-125 1814,-89 2018,-89 2018,-125"/>
<text text-anchor="middle" x="1916" y="-103.3" font-family="Times New Roman,serif" font-size="14.00">Trust Region Policy Optimization</text>
</g>
<!-- c2016&#45;&gt;c2017 -->
<g id="edge7" class="edge">
<title>c2016&#45;&gt;c2017</title>
<path fill="none" stroke="darkgreen" stroke-dasharray="5,2" d="M1914.48,-161.81C1914.71,-153.79 1914.98,-144.05 1915.24,-135.07"/>
<polygon fill="darkgreen" stroke="darkgreen" points="1918.74,-135.12 1915.52,-125.03 1911.74,-134.93 1918.74,-135.12"/>
</g>
<!-- d2017 -->
<g id="node10" class="node">
<title>d2017</title>
<polygon fill="none" stroke="black" points="2096,-52 1740,-52 1740,-16 2096,-16 2096,-52"/>
<text text-anchor="middle" x="1918" y="-30.3" font-family="Times New Roman,serif" font-size="14.00">Emergence of Locomotion Behaviours in Rich Environments</text>
</g>
<!-- c2017&#45;&gt;d2017 -->
<g id="edge8" class="edge">
<title>c2017&#45;&gt;d2017</title>
<path fill="none" stroke="darkgreen" stroke-dasharray="5,2" d="M1916.48,-88.81C1916.71,-80.79 1916.98,-71.05 1917.24,-62.07"/>
<polygon fill="darkgreen" stroke="darkgreen" points="1920.74,-62.12 1917.52,-52.03 1913.74,-61.93 1920.74,-62.12"/>
</g>
</g>
</svg>
