<?xml version="1.0" encoding="UTF-8" standalone="no"?>
<!DOCTYPE svg PUBLIC "-//W3C//DTD SVG 1.1//EN"
 "http://www.w3.org/Graphics/SVG/1.1/DTD/svg11.dtd">
<!-- Generated by graphviz version 2.44.1 (20200629.0800)
 -->
<!-- Title: ML_Math Pages: 1 -->
<svg width="3463pt" height="554pt"
 viewBox="0.00 0.00 3463.00 554.00" xmlns="http://www.w3.org/2000/svg" xmlns:xlink="http://www.w3.org/1999/xlink">
<g id="graph0" class="graph" transform="scale(1 1) rotate(0) translate(4 550)">
<title>ML_Math</title>
<polygon fill="white" stroke="transparent" points="-4,4 -4,-550 3459,-550 3459,4 -4,4"/>
<g id="clust4" class="cluster">
<title>cluster_pg</title>
<polygon fill="none" stroke="black" stroke-dasharray="5,2" points="1931,-8 1931,-375 3447,-375 3447,-8 1931,-8"/>
<text text-anchor="middle" x="2689" y="-359.8" font-family="Times New Roman,serif" font-size="14.00">Policy Gradient</text>
</g>
<g id="clust3" class="cluster">
<title>cluster_dqn</title>
<polygon fill="none" stroke="black" stroke-dasharray="5,2" points="8,-300 8,-469 1923,-469 1923,-300 8,-300"/>
<text text-anchor="middle" x="965.5" y="-453.8" font-family="Times New Roman,serif" font-size="14.00">DQN</text>
</g>
<!-- a1992 -->
<g id="node1" class="node">
<title>a1992</title>
<polygon fill="none" stroke="black" points="3439,-344 2899,-344 2899,-308 3439,-308 3439,-344"/>
<text text-anchor="middle" x="3169" y="-322.3" font-family="Times New Roman,serif" font-size="14.00">[1992] Simple statistical gradient&#45;following algorithms for connectionist reinforcement learning</text>
</g>
<!-- a1999 -->
<g id="node4" class="node">
<title>a1999</title>
<polygon fill="none" stroke="black" points="3022,-271 2500,-271 2500,-235 3022,-235 3022,-271"/>
<text text-anchor="middle" x="2761" y="-249.3" font-family="Times New Roman,serif" font-size="14.00">[1999] Policy Gradient Methods for Reinforcement Learning with Function Approximation</text>
</g>
<!-- a1992&#45;&gt;a1999 -->
<g id="edge12" class="edge">
<title>a1992&#45;&gt;a1999</title>
<path fill="none" stroke="darkgreen" stroke-dasharray="5,2" d="M3071.27,-307.99C3010.29,-297.38 2931.74,-283.71 2868.93,-272.78"/>
<polygon fill="darkgreen" stroke="darkgreen" points="2869.44,-269.32 2858.99,-271.05 2868.24,-276.21 2869.44,-269.32"/>
</g>
<!-- a1993 -->
<g id="node2" class="node">
<title>a1993</title>
<polygon fill="none" stroke="black" points="1243.5,-546 854.5,-546 854.5,-510 1243.5,-510 1243.5,-546"/>
<text text-anchor="middle" x="1049" y="-524.3" font-family="Times New Roman,serif" font-size="14.00">[1993] Reinforcement Learning for Robots Using Neural Networks</text>
</g>
<!-- a2013 -->
<g id="node7" class="node">
<title>a2013</title>
<polygon fill="none" stroke="black" points="1211.5,-438 886.5,-438 886.5,-402 1211.5,-402 1211.5,-438"/>
<text text-anchor="middle" x="1049" y="-416.3" font-family="Times New Roman,serif" font-size="14.00">[2013] Playing Atari with Deep Reinforcement Learning</text>
</g>
<!-- a1993&#45;&gt;a2013 -->
<g id="edge1" class="edge">
<title>a1993&#45;&gt;a2013</title>
<path fill="none" stroke="darkgreen" stroke-dasharray="5,2" d="M1049,-509.97C1049,-493.38 1049,-467.88 1049,-448.43"/>
<polygon fill="darkgreen" stroke="darkgreen" points="1052.5,-448.34 1049,-438.34 1045.5,-448.34 1052.5,-448.34"/>
<text text-anchor="middle" x="1130.5" y="-480.8" font-family="Times New Roman,serif" font-size="14.00">experience replay mechanism</text>
</g>
<!-- a1994 -->
<g id="node3" class="node">
<title>a1994</title>
<polygon fill="none" stroke="black" points="2881,-344 2339,-344 2339,-308 2881,-308 2881,-344"/>
<text text-anchor="middle" x="2610" y="-322.3" font-family="Times New Roman,serif" font-size="14.00">[1994] Reinforcement Learning Algorithm for Partially Observable Markov Decision Problems</text>
</g>
<!-- a1994&#45;&gt;a1999 -->
<g id="edge13" class="edge">
<title>a1994&#45;&gt;a1999</title>
<path fill="none" stroke="darkgreen" stroke-dasharray="5,2" d="M2646.17,-307.99C2666.93,-298.23 2693.21,-285.88 2715.38,-275.45"/>
<polygon fill="darkgreen" stroke="darkgreen" points="2717.04,-278.54 2724.6,-271.11 2714.06,-272.2 2717.04,-278.54"/>
</g>
<!-- a2001 -->
<g id="node5" class="node">
<title>a2001</title>
<polygon fill="none" stroke="black" points="2861,-198 2661,-198 2661,-162 2861,-162 2861,-198"/>
<text text-anchor="middle" x="2761" y="-176.3" font-family="Times New Roman,serif" font-size="14.00">[2001] A Natural Policy Gradient</text>
</g>
<!-- a1999&#45;&gt;a2001 -->
<g id="edge11" class="edge">
<title>a1999&#45;&gt;a2001</title>
<path fill="none" stroke="darkgreen" stroke-dasharray="5,2" d="M2761,-234.81C2761,-226.79 2761,-217.05 2761,-208.07"/>
<polygon fill="darkgreen" stroke="darkgreen" points="2764.5,-208.03 2761,-198.03 2757.5,-208.03 2764.5,-208.03"/>
</g>
<!-- c2017 -->
<g id="node14" class="node">
<title>c2017</title>
<polygon fill="none" stroke="black" points="2505,-198 2261,-198 2261,-162 2505,-162 2505,-198"/>
<text text-anchor="middle" x="2383" y="-176.3" font-family="Times New Roman,serif" font-size="14.00">[2017] Trust Region Policy Optimization</text>
</g>
<!-- a1999&#45;&gt;c2017 -->
<g id="edge9" class="edge">
<title>a1999&#45;&gt;c2017</title>
<path fill="none" stroke="darkgreen" stroke-dasharray="5,2" d="M2670.46,-234.99C2614.2,-224.43 2541.78,-210.82 2483.71,-199.92"/>
<polygon fill="darkgreen" stroke="darkgreen" points="2484.26,-196.46 2473.78,-198.05 2482.97,-203.34 2484.26,-196.46"/>
</g>
<!-- a2002 -->
<g id="node6" class="node">
<title>a2002</title>
<polygon fill="none" stroke="black" points="2481.5,-271 2098.5,-271 2098.5,-235 2481.5,-235 2481.5,-271"/>
<text text-anchor="middle" x="2290" y="-249.3" font-family="Times New Roman,serif" font-size="14.00">[2002] Approximately optimal approximate reinforcement learning</text>
</g>
<!-- a2002&#45;&gt;c2017 -->
<g id="edge15" class="edge">
<title>a2002&#45;&gt;c2017</title>
<path fill="none" stroke="darkgreen" stroke-dasharray="5,2" d="M2312.51,-234.81C2324.51,-225.66 2339.43,-214.26 2352.46,-204.32"/>
<polygon fill="darkgreen" stroke="darkgreen" points="2354.87,-206.88 2360.69,-198.03 2350.62,-201.32 2354.87,-206.88"/>
</g>
<!-- a2015 -->
<g id="node8" class="node">
<title>a2015</title>
<polygon fill="none" stroke="black" points="372,-344 16,-344 16,-308 372,-308 372,-344"/>
<text text-anchor="middle" x="194" y="-322.3" font-family="Times New Roman,serif" font-size="14.00">[2015] Deep Reinforcement Learning with Double Q&#45;learning</text>
</g>
<!-- a2013&#45;&gt;a2015 -->
<g id="edge2" class="edge">
<title>a2013&#45;&gt;a2015</title>
<path fill="none" stroke="darkgreen" stroke-dasharray="5,2" d="M886.33,-416.62C750.7,-412.64 552.76,-402.19 382,-375 340.65,-368.41 295.12,-356.91 259.23,-346.81"/>
<polygon fill="darkgreen" stroke="darkgreen" points="259.95,-343.37 249.38,-344 258.04,-350.11 259.95,-343.37"/>
</g>
<!-- a2016 -->
<g id="node9" class="node">
<title>a2016</title>
<polygon fill="none" stroke="black" points="611.5,-344 390.5,-344 390.5,-308 611.5,-308 611.5,-344"/>
<text text-anchor="middle" x="501" y="-322.3" font-family="Times New Roman,serif" font-size="14.00">[2016] Prioritized Experience Replay</text>
</g>
<!-- a2013&#45;&gt;a2016 -->
<g id="edge3" class="edge">
<title>a2013&#45;&gt;a2016</title>
<path fill="none" stroke="darkgreen" stroke-dasharray="5,2" d="M886.37,-412.93C805.65,-407.24 707.22,-396.23 621,-375 595.17,-368.64 567.52,-357.87 545.29,-348.15"/>
<polygon fill="darkgreen" stroke="darkgreen" points="546.67,-344.93 536.11,-344.06 543.82,-351.33 546.67,-344.93"/>
</g>
<!-- b2016 -->
<g id="node10" class="node">
<title>b2016</title>
<polygon fill="none" stroke="black" points="1048.5,-344 629.5,-344 629.5,-308 1048.5,-308 1048.5,-344"/>
<text text-anchor="middle" x="839" y="-322.3" font-family="Times New Roman,serif" font-size="14.00">[2016] Dueling Network Architectures for Deep Reinforcement Learning</text>
</g>
<!-- a2013&#45;&gt;b2016 -->
<g id="edge4" class="edge">
<title>a2013&#45;&gt;b2016</title>
<path fill="none" stroke="darkgreen" stroke-dasharray="5,2" d="M1009.99,-401.91C975.48,-386.79 924.96,-364.66 887.78,-348.37"/>
<polygon fill="darkgreen" stroke="darkgreen" points="888.72,-344.96 878.15,-344.15 885.91,-351.37 888.72,-344.96"/>
</g>
<!-- c2016 -->
<g id="node11" class="node">
<title>c2016</title>
<polygon fill="none" stroke="black" points="2321,-344 1939,-344 1939,-308 2321,-308 2321,-344"/>
<text text-anchor="middle" x="2130" y="-322.3" font-family="Times New Roman,serif" font-size="14.00">[2016] Asynchronous Methods for Deep Reinforcement Learning</text>
</g>
<!-- a2013&#45;&gt;c2016 -->
<g id="edge8" class="edge">
<title>a2013&#45;&gt;c2016</title>
<path fill="none" stroke="darkgreen" stroke-dasharray="5,2" d="M1211.67,-419.68C1388.55,-418.36 1679.19,-410.21 1927,-375 1972.12,-368.59 2021.93,-356.88 2060.92,-346.64"/>
<polygon fill="darkgreen" stroke="darkgreen" points="2061.82,-350.02 2070.59,-344.07 2060.03,-343.25 2061.82,-350.02"/>
</g>
<!-- a2017 -->
<g id="node12" class="node">
<title>a2017</title>
<polygon fill="none" stroke="black" points="1453,-344 1067,-344 1067,-308 1453,-308 1453,-344"/>
<text text-anchor="middle" x="1260" y="-322.3" font-family="Times New Roman,serif" font-size="14.00">[2017] Deep Recurrent Q&#45;Learning for Partially Observable MDPs</text>
</g>
<!-- a2013&#45;&gt;a2017 -->
<g id="edge5" class="edge">
<title>a2013&#45;&gt;a2017</title>
<path fill="none" stroke="darkgreen" stroke-dasharray="5,2" d="M1088.19,-401.91C1123.02,-386.73 1174.06,-364.47 1211.46,-348.16"/>
<polygon fill="darkgreen" stroke="darkgreen" points="1212.89,-351.36 1220.66,-344.15 1210.09,-344.94 1212.89,-351.36"/>
</g>
<!-- b2017 -->
<g id="node13" class="node">
<title>b2017</title>
<polygon fill="none" stroke="black" points="1914.5,-344 1471.5,-344 1471.5,-308 1914.5,-308 1914.5,-344"/>
<text text-anchor="middle" x="1693" y="-322.3" font-family="Times New Roman,serif" font-size="14.00">[2017] Rainbow: Combining Improvements in Deep Reinforcement Learning</text>
</g>
<!-- a2013&#45;&gt;b2017 -->
<g id="edge6" class="edge">
<title>a2013&#45;&gt;b2017</title>
<path fill="none" stroke="darkgreen" stroke-dasharray="5,2" d="M1211.8,-405.4C1288.02,-398.07 1379.9,-387.87 1462,-375 1511.57,-367.23 1566.58,-355.91 1610.49,-346.21"/>
<polygon fill="darkgreen" stroke="darkgreen" points="1611.25,-349.63 1620.25,-344.04 1609.73,-342.79 1611.25,-349.63"/>
</g>
<!-- e2017 -->
<g id="node16" class="node">
<title>e2017</title>
<polygon fill="none" stroke="black" points="2362.5,-125 2077.5,-125 2077.5,-89 2362.5,-89 2362.5,-125"/>
<text text-anchor="middle" x="2220" y="-103.3" font-family="Times New Roman,serif" font-size="14.00">[2017] Proximal Policy Optimization Algorithms</text>
</g>
<!-- c2017&#45;&gt;e2017 -->
<g id="edge7" class="edge">
<title>c2017&#45;&gt;e2017</title>
<path fill="none" stroke="darkgreen" stroke-dasharray="5,2" d="M2343.96,-161.99C2321.34,-152.14 2292.67,-139.66 2268.61,-129.17"/>
<polygon fill="darkgreen" stroke="darkgreen" points="2269.85,-125.9 2259.29,-125.11 2267.06,-132.32 2269.85,-125.9"/>
</g>
<!-- f2017 -->
<g id="node17" class="node">
<title>f2017</title>
<polygon fill="none" stroke="black" points="2735,-125 2381,-125 2381,-89 2735,-89 2735,-125"/>
<text text-anchor="middle" x="2558" y="-103.3" font-family="Times New Roman,serif" font-size="14.00">[2017] Sample Efficient Actor&#45;Critic with Experience Replay</text>
</g>
<!-- c2017&#45;&gt;f2017 -->
<g id="edge14" class="edge">
<title>c2017&#45;&gt;f2017</title>
<path fill="none" stroke="darkgreen" stroke-dasharray="5,2" d="M2424.92,-161.99C2449.41,-152.06 2480.52,-139.43 2506.5,-128.89"/>
<polygon fill="darkgreen" stroke="darkgreen" points="2507.87,-132.12 2515.82,-125.11 2505.24,-125.63 2507.87,-132.12"/>
</g>
<!-- d2017 -->
<g id="node15" class="node">
<title>d2017</title>
<polygon fill="none" stroke="black" points="2418,-52 2022,-52 2022,-16 2418,-16 2418,-52"/>
<text text-anchor="middle" x="2220" y="-30.3" font-family="Times New Roman,serif" font-size="14.00">[2017] Emergence of Locomotion Behaviours in Rich Environments</text>
</g>
<!-- e2017&#45;&gt;d2017 -->
<g id="edge10" class="edge">
<title>e2017&#45;&gt;d2017</title>
<path fill="none" stroke="darkgreen" stroke-dasharray="5,2" d="M2220,-88.81C2220,-80.79 2220,-71.05 2220,-62.07"/>
<polygon fill="darkgreen" stroke="darkgreen" points="2223.5,-62.03 2220,-52.03 2216.5,-62.03 2223.5,-62.03"/>
</g>
</g>
</svg>
