<?xml version="1.0" encoding="UTF-8" standalone="no"?>
<!DOCTYPE svg PUBLIC "-//W3C//DTD SVG 1.1//EN"
 "http://www.w3.org/Graphics/SVG/1.1/DTD/svg11.dtd">
<!-- Generated by graphviz version 2.44.1 (20200629.0800)
 -->
<!-- Title: ML_Math Pages: 1 -->
<svg width="2885pt" height="481pt"
 viewBox="0.00 0.00 2885.00 481.00" xmlns="http://www.w3.org/2000/svg" xmlns:xlink="http://www.w3.org/1999/xlink">
<g id="graph0" class="graph" transform="scale(1 1) rotate(0) translate(4 477)">
<title>ML_Math</title>
<polygon fill="white" stroke="transparent" points="-4,4 -4,-477 2881,-477 2881,4 -4,4"/>
<g id="clust3" class="cluster">
<title>cluster_dqn</title>
<polygon fill="none" stroke="black" stroke-dasharray="5,2" points="8,-227 8,-396 1923,-396 1923,-227 8,-227"/>
<text text-anchor="middle" x="965.5" y="-380.8" font-family="Times New Roman,serif" font-size="14.00">DQN</text>
</g>
<g id="clust4" class="cluster">
<title>cluster_pg</title>
<polygon fill="none" stroke="black" stroke-dasharray="5,2" points="1931,-8 1931,-302 2869,-302 2869,-8 1931,-8"/>
<text text-anchor="middle" x="2400" y="-286.8" font-family="Times New Roman,serif" font-size="14.00">Policy Gradient</text>
</g>
<!-- a1993 -->
<g id="node1" class="node">
<title>a1993</title>
<polygon fill="none" stroke="black" points="1243.5,-473 854.5,-473 854.5,-437 1243.5,-437 1243.5,-473"/>
<text text-anchor="middle" x="1049" y="-451.3" font-family="Times New Roman,serif" font-size="14.00">[1993] Reinforcement Learning for Robots Using Neural Networks</text>
</g>
<!-- a2013 -->
<g id="node3" class="node">
<title>a2013</title>
<polygon fill="none" stroke="black" points="1211.5,-365 886.5,-365 886.5,-329 1211.5,-329 1211.5,-365"/>
<text text-anchor="middle" x="1049" y="-343.3" font-family="Times New Roman,serif" font-size="14.00">[2013] Playing Atari with Deep Reinforcement Learning</text>
</g>
<!-- a1993&#45;&gt;a2013 -->
<g id="edge1" class="edge">
<title>a1993&#45;&gt;a2013</title>
<path fill="none" stroke="darkgreen" stroke-dasharray="5,2" d="M1049,-436.97C1049,-420.38 1049,-394.88 1049,-375.43"/>
<polygon fill="darkgreen" stroke="darkgreen" points="1052.5,-375.34 1049,-365.34 1045.5,-375.34 1052.5,-375.34"/>
<text text-anchor="middle" x="1130.5" y="-407.8" font-family="Times New Roman,serif" font-size="14.00">experience replay mechanism</text>
</g>
<!-- a1999 -->
<g id="node2" class="node">
<title>a1999</title>
<polygon fill="none" stroke="black" points="2861,-271 2339,-271 2339,-235 2861,-235 2861,-271"/>
<text text-anchor="middle" x="2600" y="-249.3" font-family="Times New Roman,serif" font-size="14.00">[1999] Policy Gradient Methods for Reinforcement Learning with Function Approximation</text>
</g>
<!-- c2017 -->
<g id="node10" class="node">
<title>c2017</title>
<polygon fill="none" stroke="black" points="2570,-198 2326,-198 2326,-162 2570,-162 2570,-198"/>
<text text-anchor="middle" x="2448" y="-176.3" font-family="Times New Roman,serif" font-size="14.00">[2017] Trust Region Policy Optimization</text>
</g>
<!-- a1999&#45;&gt;c2017 -->
<g id="edge12" class="edge">
<title>a1999&#45;&gt;c2017</title>
<path fill="none" stroke="darkgreen" stroke-dasharray="5,2" d="M2563.59,-234.99C2542.69,-225.23 2516.24,-212.88 2493.92,-202.45"/>
<polygon fill="darkgreen" stroke="darkgreen" points="2495.18,-199.17 2484.64,-198.11 2492.22,-205.52 2495.18,-199.17"/>
</g>
<!-- e2017 -->
<g id="node12" class="node">
<title>e2017</title>
<polygon fill="none" stroke="black" points="2742.5,-125 2457.5,-125 2457.5,-89 2742.5,-89 2742.5,-125"/>
<text text-anchor="middle" x="2600" y="-103.3" font-family="Times New Roman,serif" font-size="14.00">[2017] Proximal Policy Optimization Algorithms</text>
</g>
<!-- a1999&#45;&gt;e2017 -->
<g id="edge11" class="edge">
<title>a1999&#45;&gt;e2017</title>
<path fill="none" stroke="darkgreen" stroke-dasharray="5,2" d="M2600,-234.92C2600,-210.34 2600,-164.75 2600,-135.43"/>
<polygon fill="darkgreen" stroke="darkgreen" points="2603.5,-135.06 2600,-125.06 2596.5,-135.06 2603.5,-135.06"/>
</g>
<!-- a2015 -->
<g id="node4" class="node">
<title>a2015</title>
<polygon fill="none" stroke="black" points="372,-271 16,-271 16,-235 372,-235 372,-271"/>
<text text-anchor="middle" x="194" y="-249.3" font-family="Times New Roman,serif" font-size="14.00">[2015] Deep Reinforcement Learning with Double Q&#45;learning</text>
</g>
<!-- a2013&#45;&gt;a2015 -->
<g id="edge2" class="edge">
<title>a2013&#45;&gt;a2015</title>
<path fill="none" stroke="darkgreen" stroke-dasharray="5,2" d="M886.33,-343.62C750.7,-339.64 552.76,-329.19 382,-302 340.65,-295.41 295.12,-283.91 259.23,-273.81"/>
<polygon fill="darkgreen" stroke="darkgreen" points="259.95,-270.37 249.38,-271 258.04,-277.11 259.95,-270.37"/>
</g>
<!-- a2016 -->
<g id="node5" class="node">
<title>a2016</title>
<polygon fill="none" stroke="black" points="611.5,-271 390.5,-271 390.5,-235 611.5,-235 611.5,-271"/>
<text text-anchor="middle" x="501" y="-249.3" font-family="Times New Roman,serif" font-size="14.00">[2016] Prioritized Experience Replay</text>
</g>
<!-- a2013&#45;&gt;a2016 -->
<g id="edge3" class="edge">
<title>a2013&#45;&gt;a2016</title>
<path fill="none" stroke="darkgreen" stroke-dasharray="5,2" d="M886.37,-339.93C805.65,-334.24 707.22,-323.23 621,-302 595.17,-295.64 567.52,-284.87 545.29,-275.15"/>
<polygon fill="darkgreen" stroke="darkgreen" points="546.67,-271.93 536.11,-271.06 543.82,-278.33 546.67,-271.93"/>
</g>
<!-- b2016 -->
<g id="node6" class="node">
<title>b2016</title>
<polygon fill="none" stroke="black" points="1048.5,-271 629.5,-271 629.5,-235 1048.5,-235 1048.5,-271"/>
<text text-anchor="middle" x="839" y="-249.3" font-family="Times New Roman,serif" font-size="14.00">[2016] Dueling Network Architectures for Deep Reinforcement Learning</text>
</g>
<!-- a2013&#45;&gt;b2016 -->
<g id="edge4" class="edge">
<title>a2013&#45;&gt;b2016</title>
<path fill="none" stroke="darkgreen" stroke-dasharray="5,2" d="M1009.99,-328.91C975.48,-313.79 924.96,-291.66 887.78,-275.37"/>
<polygon fill="darkgreen" stroke="darkgreen" points="888.72,-271.96 878.15,-271.15 885.91,-278.37 888.72,-271.96"/>
</g>
<!-- c2016 -->
<g id="node7" class="node">
<title>c2016</title>
<polygon fill="none" stroke="black" points="2321,-271 1939,-271 1939,-235 2321,-235 2321,-271"/>
<text text-anchor="middle" x="2130" y="-249.3" font-family="Times New Roman,serif" font-size="14.00">[2016] Asynchronous Methods for Deep Reinforcement Learning</text>
</g>
<!-- a2013&#45;&gt;c2016 -->
<g id="edge10" class="edge">
<title>a2013&#45;&gt;c2016</title>
<path fill="none" stroke="darkgreen" stroke-dasharray="5,2" d="M1211.67,-346.68C1388.55,-345.36 1679.19,-337.21 1927,-302 1972.12,-295.59 2021.93,-283.88 2060.92,-273.64"/>
<polygon fill="darkgreen" stroke="darkgreen" points="2061.82,-277.02 2070.59,-271.07 2060.03,-270.25 2061.82,-277.02"/>
</g>
<!-- a2017 -->
<g id="node8" class="node">
<title>a2017</title>
<polygon fill="none" stroke="black" points="1453,-271 1067,-271 1067,-235 1453,-235 1453,-271"/>
<text text-anchor="middle" x="1260" y="-249.3" font-family="Times New Roman,serif" font-size="14.00">[2017] Deep Recurrent Q&#45;Learning for Partially Observable MDPs</text>
</g>
<!-- a2013&#45;&gt;a2017 -->
<g id="edge5" class="edge">
<title>a2013&#45;&gt;a2017</title>
<path fill="none" stroke="darkgreen" stroke-dasharray="5,2" d="M1088.19,-328.91C1123.02,-313.73 1174.06,-291.47 1211.46,-275.16"/>
<polygon fill="darkgreen" stroke="darkgreen" points="1212.89,-278.36 1220.66,-271.15 1210.09,-271.94 1212.89,-278.36"/>
</g>
<!-- b2017 -->
<g id="node9" class="node">
<title>b2017</title>
<polygon fill="none" stroke="black" points="1914.5,-271 1471.5,-271 1471.5,-235 1914.5,-235 1914.5,-271"/>
<text text-anchor="middle" x="1693" y="-249.3" font-family="Times New Roman,serif" font-size="14.00">[2017] Rainbow: Combining Improvements in Deep Reinforcement Learning</text>
</g>
<!-- a2013&#45;&gt;b2017 -->
<g id="edge6" class="edge">
<title>a2013&#45;&gt;b2017</title>
<path fill="none" stroke="darkgreen" stroke-dasharray="5,2" d="M1211.8,-332.4C1288.02,-325.07 1379.9,-314.87 1462,-302 1511.57,-294.23 1566.58,-282.91 1610.49,-273.21"/>
<polygon fill="darkgreen" stroke="darkgreen" points="1611.25,-276.63 1620.25,-271.04 1609.73,-269.79 1611.25,-276.63"/>
</g>
<!-- c2016&#45;&gt;c2017 -->
<g id="edge7" class="edge">
<title>c2016&#45;&gt;c2017</title>
<path fill="none" stroke="darkgreen" stroke-dasharray="5,2" d="M2206.17,-234.99C2253.01,-224.53 2313.16,-211.11 2361.76,-200.26"/>
<polygon fill="darkgreen" stroke="darkgreen" points="2362.63,-203.65 2371.63,-198.05 2361.1,-196.82 2362.63,-203.65"/>
</g>
<!-- d2017 -->
<g id="node11" class="node">
<title>d2017</title>
<polygon fill="none" stroke="black" points="2678,-52 2282,-52 2282,-16 2678,-16 2678,-52"/>
<text text-anchor="middle" x="2480" y="-30.3" font-family="Times New Roman,serif" font-size="14.00">[2017] Emergence of Locomotion Behaviours in Rich Environments</text>
</g>
<!-- c2017&#45;&gt;d2017 -->
<g id="edge8" class="edge">
<title>c2017&#45;&gt;d2017</title>
<path fill="none" stroke="darkgreen" stroke-dasharray="5,2" d="M2445.65,-161.73C2443.73,-143.34 2442.3,-113.57 2449,-89 2451.63,-79.35 2456.41,-69.62 2461.44,-61.13"/>
<polygon fill="darkgreen" stroke="darkgreen" points="2464.53,-62.79 2466.91,-52.47 2458.61,-59.06 2464.53,-62.79"/>
</g>
<!-- c2017&#45;&gt;e2017 -->
<g id="edge9" class="edge">
<title>c2017&#45;&gt;e2017</title>
<path fill="none" stroke="darkgreen" stroke-dasharray="5,2" d="M2484.41,-161.99C2505.31,-152.23 2531.76,-139.88 2554.08,-129.45"/>
<polygon fill="darkgreen" stroke="darkgreen" points="2555.78,-132.52 2563.36,-125.11 2552.82,-126.17 2555.78,-132.52"/>
</g>
<!-- e2017&#45;&gt;d2017 -->
<g id="edge13" class="edge">
<title>e2017&#45;&gt;d2017</title>
<path fill="none" stroke="darkgreen" stroke-dasharray="5,2" d="M2571.26,-88.99C2555.2,-79.49 2534.99,-67.54 2517.68,-57.29"/>
<polygon fill="darkgreen" stroke="darkgreen" points="2519.31,-54.19 2508.92,-52.11 2515.75,-60.22 2519.31,-54.19"/>
</g>
</g>
</svg>
