<?xml version="1.0" encoding="UTF-8" standalone="no"?>
<!DOCTYPE svg PUBLIC "-//W3C//DTD SVG 1.1//EN"
 "http://www.w3.org/Graphics/SVG/1.1/DTD/svg11.dtd">
<!-- Generated by graphviz version 2.44.1 (20200629.0800)
 -->
<!-- Title: ML_Math Pages: 1 -->
<svg width="2601pt" height="460pt"
 viewBox="0.00 0.00 2601.00 460.00" xmlns="http://www.w3.org/2000/svg" xmlns:xlink="http://www.w3.org/1999/xlink">
<g id="graph0" class="graph" transform="scale(1 1) rotate(0) translate(4 456)">
<title>ML_Math</title>
<polygon fill="white" stroke="transparent" points="-4,4 -4,-456 2597,-456 2597,4 -4,4"/>
<g id="clust3" class="cluster">
<title>cluster_dqn</title>
<polygon fill="none" stroke="black" stroke-dasharray="5,2" points="8,-227 8,-375 1923,-375 1923,-227 8,-227"/>
<text text-anchor="middle" x="965.5" y="-359.8" font-family="Times New Roman,serif" font-size="14.00">DQN</text>
</g>
<g id="clust4" class="cluster">
<title>cluster_pg</title>
<polygon fill="none" stroke="black" stroke-dasharray="5,2" points="1931,-8 1931,-375 2585,-375 2585,-8 1931,-8"/>
<text text-anchor="middle" x="2258" y="-359.8" font-family="Times New Roman,serif" font-size="14.00">Policy Gradient</text>
</g>
<!-- a1993 -->
<g id="node1" class="node">
<title>a1993</title>
<polygon fill="none" stroke="black" points="1243.5,-452 854.5,-452 854.5,-416 1243.5,-416 1243.5,-452"/>
<text text-anchor="middle" x="1049" y="-430.3" font-family="Times New Roman,serif" font-size="14.00">[1993] Reinforcement Learning for Robots Using Neural Networks</text>
</g>
<!-- a2013 -->
<g id="node4" class="node">
<title>a2013</title>
<polygon fill="none" stroke="black" points="1211.5,-344 886.5,-344 886.5,-308 1211.5,-308 1211.5,-344"/>
<text text-anchor="middle" x="1049" y="-322.3" font-family="Times New Roman,serif" font-size="14.00">[2013] Playing Atari with Deep Reinforcement Learning</text>
</g>
<!-- a1993&#45;&gt;a2013 -->
<g id="edge1" class="edge">
<title>a1993&#45;&gt;a2013</title>
<path fill="none" stroke="darkgreen" stroke-dasharray="5,2" d="M1049,-415.97C1049,-399.38 1049,-373.88 1049,-354.43"/>
<polygon fill="darkgreen" stroke="darkgreen" points="1052.5,-354.34 1049,-344.34 1045.5,-354.34 1052.5,-354.34"/>
<text text-anchor="middle" x="1130.5" y="-386.8" font-family="Times New Roman,serif" font-size="14.00">experience replay mechanism</text>
</g>
<!-- a1999 -->
<g id="node2" class="node">
<title>a1999</title>
<polygon fill="none" stroke="black" points="2577,-344 2055,-344 2055,-308 2577,-308 2577,-344"/>
<text text-anchor="middle" x="2316" y="-322.3" font-family="Times New Roman,serif" font-size="14.00">[1999] Policy Gradient Methods for Reinforcement Learning with Function Approximation</text>
</g>
<!-- a2001 -->
<g id="node3" class="node">
<title>a2001</title>
<polygon fill="none" stroke="black" points="2536.5,-271 2339.5,-271 2339.5,-235 2536.5,-235 2536.5,-271"/>
<text text-anchor="middle" x="2438" y="-249.3" font-family="Times New Roman,serif" font-size="14.00">[2001]A Natural Policy Gradient</text>
</g>
<!-- a1999&#45;&gt;a2001 -->
<g id="edge15" class="edge">
<title>a1999&#45;&gt;a2001</title>
<path fill="none" stroke="darkgreen" stroke-dasharray="5,2" d="M2345.22,-307.99C2361.55,-298.49 2382.09,-286.54 2399.69,-276.29"/>
<polygon fill="darkgreen" stroke="darkgreen" points="2401.71,-279.17 2408.59,-271.11 2398.19,-273.12 2401.71,-279.17"/>
</g>
<!-- c2017 -->
<g id="node11" class="node">
<title>c2017</title>
<polygon fill="none" stroke="black" points="2556,-198 2312,-198 2312,-162 2556,-162 2556,-198"/>
<text text-anchor="middle" x="2434" y="-176.3" font-family="Times New Roman,serif" font-size="14.00">[2017] Trust Region Policy Optimization</text>
</g>
<!-- a1999&#45;&gt;c2017 -->
<g id="edge12" class="edge">
<title>a1999&#45;&gt;c2017</title>
<path fill="none" stroke="darkgreen" stroke-dasharray="5,2" d="M2449.89,-307.99C2492.89,-299.59 2532.85,-287.6 2546,-271 2558.15,-255.67 2556.89,-243.24 2546,-227 2539.23,-216.91 2529.81,-209.02 2519.28,-202.87"/>
<polygon fill="darkgreen" stroke="darkgreen" points="2520.68,-199.66 2510.2,-198.1 2517.42,-205.85 2520.68,-199.66"/>
</g>
<!-- e2017 -->
<g id="node13" class="node">
<title>e2017</title>
<polygon fill="none" stroke="black" points="2576.5,-125 2291.5,-125 2291.5,-89 2576.5,-89 2576.5,-125"/>
<text text-anchor="middle" x="2434" y="-103.3" font-family="Times New Roman,serif" font-size="14.00">[2017] Proximal Policy Optimization Algorithms</text>
</g>
<!-- a1999&#45;&gt;e2017 -->
<g id="edge11" class="edge">
<title>a1999&#45;&gt;e2017</title>
<path fill="none" stroke="darkgreen" stroke-dasharray="5,2" d="M2466.02,-307.94C2507.14,-299.77 2543.6,-287.94 2555,-271 2582.16,-230.64 2592.06,-202.43 2565,-162 2555.39,-147.65 2541.2,-137.1 2525.66,-129.36"/>
<polygon fill="darkgreen" stroke="darkgreen" points="2526.93,-126.09 2516.38,-125.12 2524.02,-132.46 2526.93,-126.09"/>
</g>
<!-- a2001&#45;&gt;c2017 -->
<g id="edge14" class="edge">
<title>a2001&#45;&gt;c2017</title>
<path fill="none" stroke="darkgreen" stroke-dasharray="5,2" d="M2437.03,-234.81C2436.58,-226.79 2436.03,-217.05 2435.53,-208.07"/>
<polygon fill="darkgreen" stroke="darkgreen" points="2439.02,-207.82 2434.96,-198.03 2432.03,-208.21 2439.02,-207.82"/>
</g>
<!-- a2015 -->
<g id="node5" class="node">
<title>a2015</title>
<polygon fill="none" stroke="black" points="372,-271 16,-271 16,-235 372,-235 372,-271"/>
<text text-anchor="middle" x="194" y="-249.3" font-family="Times New Roman,serif" font-size="14.00">[2015] Deep Reinforcement Learning with Double Q&#45;learning</text>
</g>
<!-- a2013&#45;&gt;a2015 -->
<g id="edge2" class="edge">
<title>a2013&#45;&gt;a2015</title>
<path fill="none" stroke="darkgreen" stroke-dasharray="5,2" d="M886.21,-312.25C753.64,-301.77 561.33,-286.33 382.26,-271.02"/>
<polygon fill="darkgreen" stroke="darkgreen" points="382.38,-267.51 372.12,-270.15 381.78,-274.49 382.38,-267.51"/>
</g>
<!-- a2016 -->
<g id="node6" class="node">
<title>a2016</title>
<polygon fill="none" stroke="black" points="611.5,-271 390.5,-271 390.5,-235 611.5,-235 611.5,-271"/>
<text text-anchor="middle" x="501" y="-249.3" font-family="Times New Roman,serif" font-size="14.00">[2016] Prioritized Experience Replay</text>
</g>
<!-- a2013&#45;&gt;a2016 -->
<g id="edge3" class="edge">
<title>a2013&#45;&gt;a2016</title>
<path fill="none" stroke="darkgreen" stroke-dasharray="5,2" d="M909.66,-307.96C828.64,-297.93 724.29,-284.78 622.02,-271.13"/>
<polygon fill="darkgreen" stroke="darkgreen" points="622.19,-267.62 611.82,-269.76 621.26,-274.56 622.19,-267.62"/>
</g>
<!-- b2016 -->
<g id="node7" class="node">
<title>b2016</title>
<polygon fill="none" stroke="black" points="1048.5,-271 629.5,-271 629.5,-235 1048.5,-235 1048.5,-271"/>
<text text-anchor="middle" x="839" y="-249.3" font-family="Times New Roman,serif" font-size="14.00">[2016] Dueling Network Architectures for Deep Reinforcement Learning</text>
</g>
<!-- a2013&#45;&gt;b2016 -->
<g id="edge4" class="edge">
<title>a2013&#45;&gt;b2016</title>
<path fill="none" stroke="darkgreen" stroke-dasharray="5,2" d="M998.7,-307.99C968.79,-297.88 930.66,-284.99 899.16,-274.34"/>
<polygon fill="darkgreen" stroke="darkgreen" points="900.21,-271 889.62,-271.11 897.97,-277.63 900.21,-271"/>
</g>
<!-- c2016 -->
<g id="node8" class="node">
<title>c2016</title>
<polygon fill="none" stroke="black" points="2321,-271 1939,-271 1939,-235 2321,-235 2321,-271"/>
<text text-anchor="middle" x="2130" y="-249.3" font-family="Times New Roman,serif" font-size="14.00">[2016] Asynchronous Methods for Deep Reinforcement Learning</text>
</g>
<!-- a2013&#45;&gt;c2016 -->
<g id="edge10" class="edge">
<title>a2013&#45;&gt;c2016</title>
<path fill="none" stroke="darkgreen" stroke-dasharray="5,2" d="M1211.7,-316.07C1388.01,-306.15 1677.58,-289.11 1927,-271 1927.49,-270.96 1927.97,-270.93 1928.46,-270.89"/>
<polygon fill="darkgreen" stroke="darkgreen" points="1929.04,-274.36 1938.75,-270.13 1928.52,-267.38 1929.04,-274.36"/>
</g>
<!-- a2017 -->
<g id="node9" class="node">
<title>a2017</title>
<polygon fill="none" stroke="black" points="1453,-271 1067,-271 1067,-235 1453,-235 1453,-271"/>
<text text-anchor="middle" x="1260" y="-249.3" font-family="Times New Roman,serif" font-size="14.00">[2017] Deep Recurrent Q&#45;Learning for Partially Observable MDPs</text>
</g>
<!-- a2013&#45;&gt;a2017 -->
<g id="edge5" class="edge">
<title>a2013&#45;&gt;a2017</title>
<path fill="none" stroke="darkgreen" stroke-dasharray="5,2" d="M1099.54,-307.99C1129.59,-297.88 1167.9,-284.99 1199.55,-274.34"/>
<polygon fill="darkgreen" stroke="darkgreen" points="1200.78,-277.62 1209.14,-271.11 1198.55,-270.99 1200.78,-277.62"/>
</g>
<!-- b2017 -->
<g id="node10" class="node">
<title>b2017</title>
<polygon fill="none" stroke="black" points="1914.5,-271 1471.5,-271 1471.5,-235 1914.5,-235 1914.5,-271"/>
<text text-anchor="middle" x="1693" y="-249.3" font-family="Times New Roman,serif" font-size="14.00">[2017] Rainbow: Combining Improvements in Deep Reinforcement Learning</text>
</g>
<!-- a2013&#45;&gt;b2017 -->
<g id="edge6" class="edge">
<title>a2013&#45;&gt;b2017</title>
<path fill="none" stroke="darkgreen" stroke-dasharray="5,2" d="M1203.25,-307.99C1301.38,-297.18 1428.34,-283.18 1528.4,-272.15"/>
<polygon fill="darkgreen" stroke="darkgreen" points="1529.05,-275.6 1538.61,-271.02 1528.29,-268.64 1529.05,-275.6"/>
</g>
<!-- c2016&#45;&gt;c2017 -->
<g id="edge7" class="edge">
<title>c2016&#45;&gt;c2017</title>
<path fill="none" stroke="darkgreen" stroke-dasharray="5,2" d="M2202.82,-234.99C2247.41,-224.58 2304.62,-211.22 2350.97,-200.39"/>
<polygon fill="darkgreen" stroke="darkgreen" points="2352.05,-203.73 2360.99,-198.05 2350.45,-196.92 2352.05,-203.73"/>
</g>
<!-- d2017 -->
<g id="node12" class="node">
<title>d2017</title>
<polygon fill="none" stroke="black" points="2499,-52 2103,-52 2103,-16 2499,-16 2499,-52"/>
<text text-anchor="middle" x="2301" y="-30.3" font-family="Times New Roman,serif" font-size="14.00">[2017] Emergence of Locomotion Behaviours in Rich Environments</text>
</g>
<!-- c2017&#45;&gt;d2017 -->
<g id="edge8" class="edge">
<title>c2017&#45;&gt;d2017</title>
<path fill="none" stroke="darkgreen" stroke-dasharray="5,2" d="M2332.71,-161.95C2313.2,-153.93 2295.1,-142.18 2283,-125 2269.89,-106.39 2277.02,-80.52 2285.88,-61.29"/>
<polygon fill="darkgreen" stroke="darkgreen" points="2289.09,-62.69 2290.43,-52.18 2282.83,-59.56 2289.09,-62.69"/>
</g>
<!-- c2017&#45;&gt;e2017 -->
<g id="edge9" class="edge">
<title>c2017&#45;&gt;e2017</title>
<path fill="none" stroke="darkgreen" stroke-dasharray="5,2" d="M2434,-161.81C2434,-153.79 2434,-144.05 2434,-135.07"/>
<polygon fill="darkgreen" stroke="darkgreen" points="2437.5,-135.03 2434,-125.03 2430.5,-135.03 2437.5,-135.03"/>
</g>
<!-- e2017&#45;&gt;d2017 -->
<g id="edge13" class="edge">
<title>e2017&#45;&gt;d2017</title>
<path fill="none" stroke="darkgreen" stroke-dasharray="5,2" d="M2402.14,-88.99C2384.1,-79.36 2361.33,-67.21 2341.97,-56.87"/>
<polygon fill="darkgreen" stroke="darkgreen" points="2343.53,-53.74 2333.06,-52.11 2340.23,-59.91 2343.53,-53.74"/>
</g>
</g>
</svg>
