<?xml version="1.0" encoding="UTF-8" standalone="no"?>
<!DOCTYPE svg PUBLIC "-//W3C//DTD SVG 1.1//EN"
 "http://www.w3.org/Graphics/SVG/1.1/DTD/svg11.dtd">
<!-- Generated by graphviz version 2.44.1 (20200629.0800)
 -->
<!-- Title: ML_Math Pages: 1 -->
<svg width="3059pt" height="499pt"
 viewBox="0.00 0.00 3059.00 499.00" xmlns="http://www.w3.org/2000/svg" xmlns:xlink="http://www.w3.org/1999/xlink">
<g id="graph0" class="graph" transform="scale(1 1) rotate(0) translate(4 495)">
<title>ML_Math</title>
<polygon fill="white" stroke="transparent" points="-4,4 -4,-495 3055,-495 3055,4 -4,4"/>
<g id="clust3" class="cluster">
<title>cluster_dqn</title>
<polygon fill="none" stroke="black" stroke-dasharray="5,2" points="8,-227 8,-375 1923,-375 1923,-227 8,-227"/>
<text text-anchor="middle" x="965.5" y="-359.8" font-family="Times New Roman,serif" font-size="14.00">DQN</text>
</g>
<g id="clust4" class="cluster">
<title>cluster_pg</title>
<polygon fill="none" stroke="black" stroke-dasharray="5,2" points="1931,-8 1931,-483 3043,-483 3043,-8 1931,-8"/>
<text text-anchor="middle" x="2487" y="-467.8" font-family="Times New Roman,serif" font-size="14.00">Policy Gradient</text>
</g>
<!-- a1993 -->
<g id="node1" class="node">
<title>a1993</title>
<polygon fill="none" stroke="black" points="1243.5,-452 854.5,-452 854.5,-416 1243.5,-416 1243.5,-452"/>
<text text-anchor="middle" x="1049" y="-430.3" font-family="Times New Roman,serif" font-size="14.00">[1993] Reinforcement Learning for Robots Using Neural Networks</text>
</g>
<!-- a2013 -->
<g id="node6" class="node">
<title>a2013</title>
<polygon fill="none" stroke="black" points="1211.5,-344 886.5,-344 886.5,-308 1211.5,-308 1211.5,-344"/>
<text text-anchor="middle" x="1049" y="-322.3" font-family="Times New Roman,serif" font-size="14.00">[2013] Playing Atari with Deep Reinforcement Learning</text>
</g>
<!-- a1993&#45;&gt;a2013 -->
<g id="edge1" class="edge">
<title>a1993&#45;&gt;a2013</title>
<path fill="none" stroke="darkgreen" stroke-dasharray="5,2" d="M1049,-415.97C1049,-399.38 1049,-373.88 1049,-354.43"/>
<polygon fill="darkgreen" stroke="darkgreen" points="1052.5,-354.34 1049,-344.34 1045.5,-354.34 1052.5,-354.34"/>
<text text-anchor="middle" x="1130.5" y="-386.8" font-family="Times New Roman,serif" font-size="14.00">experience replay mechanism</text>
</g>
<!-- a1994 -->
<g id="node2" class="node">
<title>a1994</title>
<polygon fill="none" stroke="black" points="3035,-452 2497,-452 2497,-416 3035,-416 3035,-452"/>
<text text-anchor="middle" x="2766" y="-430.3" font-family="Times New Roman,serif" font-size="14.00">[1994]Reinforcement Learning Algorithm for Partially Observable Markov Decision Problems</text>
</g>
<!-- a1999 -->
<g id="node4" class="node">
<title>a1999</title>
<polygon fill="none" stroke="black" points="2817,-344 2295,-344 2295,-308 2817,-308 2817,-344"/>
<text text-anchor="middle" x="2556" y="-322.3" font-family="Times New Roman,serif" font-size="14.00">[1999] Policy Gradient Methods for Reinforcement Learning with Function Approximation</text>
</g>
<!-- a1994&#45;&gt;a1999 -->
<g id="edge17" class="edge">
<title>a1994&#45;&gt;a1999</title>
<path fill="none" stroke="darkgreen" stroke-dasharray="5,2" d="M2732.26,-415.97C2696.09,-397.71 2638.55,-368.67 2599.12,-348.76"/>
<polygon fill="darkgreen" stroke="darkgreen" points="2600.51,-345.55 2590,-344.16 2597.35,-351.79 2600.51,-345.55"/>
</g>
<!-- a1995 -->
<g id="node3" class="node">
<title>a1995</title>
<polygon fill="none" stroke="black" points="2479,-452 1939,-452 1939,-416 2479,-416 2479,-452"/>
<text text-anchor="middle" x="2209" y="-430.3" font-family="Times New Roman,serif" font-size="14.00">[1995] Simple statistical gradient&#45;following algorithms for connectionist reinforcement learning</text>
</g>
<!-- a1995&#45;&gt;a1999 -->
<g id="edge16" class="edge">
<title>a1995&#45;&gt;a1999</title>
<path fill="none" stroke="darkgreen" stroke-dasharray="5,2" d="M2264.75,-415.97C2326.25,-397.18 2425.13,-366.98 2490.33,-347.06"/>
<polygon fill="darkgreen" stroke="darkgreen" points="2491.56,-350.35 2500.1,-344.08 2489.51,-343.65 2491.56,-350.35"/>
</g>
<!-- a2001 -->
<g id="node5" class="node">
<title>a2001</title>
<polygon fill="none" stroke="black" points="2536.5,-271 2339.5,-271 2339.5,-235 2536.5,-235 2536.5,-271"/>
<text text-anchor="middle" x="2438" y="-249.3" font-family="Times New Roman,serif" font-size="14.00">[2001]A Natural Policy Gradient</text>
</g>
<!-- a1999&#45;&gt;a2001 -->
<g id="edge15" class="edge">
<title>a1999&#45;&gt;a2001</title>
<path fill="none" stroke="darkgreen" stroke-dasharray="5,2" d="M2527.74,-307.99C2511.94,-298.49 2492.07,-286.54 2475.05,-276.29"/>
<polygon fill="darkgreen" stroke="darkgreen" points="2476.82,-273.27 2466.44,-271.11 2473.21,-279.27 2476.82,-273.27"/>
</g>
<!-- c2017 -->
<g id="node13" class="node">
<title>c2017</title>
<polygon fill="none" stroke="black" points="2558,-198 2314,-198 2314,-162 2558,-162 2558,-198"/>
<text text-anchor="middle" x="2436" y="-176.3" font-family="Times New Roman,serif" font-size="14.00">[2017] Trust Region Policy Optimization</text>
</g>
<!-- a1999&#45;&gt;c2017 -->
<g id="edge12" class="edge">
<title>a1999&#45;&gt;c2017</title>
<path fill="none" stroke="darkgreen" stroke-dasharray="5,2" d="M2559.14,-307.9C2562.01,-286.74 2563.52,-250.63 2546,-227 2538.46,-216.83 2528.24,-208.9 2517.06,-202.71"/>
<polygon fill="darkgreen" stroke="darkgreen" points="2518.43,-199.48 2507.92,-198.11 2515.28,-205.73 2518.43,-199.48"/>
</g>
<!-- e2017 -->
<g id="node15" class="node">
<title>e2017</title>
<polygon fill="none" stroke="black" points="2719.5,-125 2434.5,-125 2434.5,-89 2719.5,-89 2719.5,-125"/>
<text text-anchor="middle" x="2577" y="-103.3" font-family="Times New Roman,serif" font-size="14.00">[2017] Proximal Policy Optimization Algorithms</text>
</g>
<!-- a1999&#45;&gt;e2017 -->
<g id="edge11" class="edge">
<title>a1999&#45;&gt;e2017</title>
<path fill="none" stroke="darkgreen" stroke-dasharray="5,2" d="M2561.13,-307.69C2562.61,-302.09 2564.07,-295.82 2565,-290 2573.71,-235.59 2576.12,-171.07 2576.78,-135.31"/>
<polygon fill="darkgreen" stroke="darkgreen" points="2580.28,-135.23 2576.93,-125.18 2573.28,-135.13 2580.28,-135.23"/>
</g>
<!-- a2001&#45;&gt;c2017 -->
<g id="edge14" class="edge">
<title>a2001&#45;&gt;c2017</title>
<path fill="none" stroke="darkgreen" stroke-dasharray="5,2" d="M2437.52,-234.81C2437.29,-226.79 2437.02,-217.05 2436.76,-208.07"/>
<polygon fill="darkgreen" stroke="darkgreen" points="2440.26,-207.93 2436.48,-198.03 2433.26,-208.12 2440.26,-207.93"/>
</g>
<!-- a2015 -->
<g id="node7" class="node">
<title>a2015</title>
<polygon fill="none" stroke="black" points="372,-271 16,-271 16,-235 372,-235 372,-271"/>
<text text-anchor="middle" x="194" y="-249.3" font-family="Times New Roman,serif" font-size="14.00">[2015] Deep Reinforcement Learning with Double Q&#45;learning</text>
</g>
<!-- a2013&#45;&gt;a2015 -->
<g id="edge2" class="edge">
<title>a2013&#45;&gt;a2015</title>
<path fill="none" stroke="darkgreen" stroke-dasharray="5,2" d="M886.21,-312.25C753.64,-301.77 561.33,-286.33 382.26,-271.02"/>
<polygon fill="darkgreen" stroke="darkgreen" points="382.38,-267.51 372.12,-270.15 381.78,-274.49 382.38,-267.51"/>
</g>
<!-- a2016 -->
<g id="node8" class="node">
<title>a2016</title>
<polygon fill="none" stroke="black" points="611.5,-271 390.5,-271 390.5,-235 611.5,-235 611.5,-271"/>
<text text-anchor="middle" x="501" y="-249.3" font-family="Times New Roman,serif" font-size="14.00">[2016] Prioritized Experience Replay</text>
</g>
<!-- a2013&#45;&gt;a2016 -->
<g id="edge3" class="edge">
<title>a2013&#45;&gt;a2016</title>
<path fill="none" stroke="darkgreen" stroke-dasharray="5,2" d="M909.66,-307.96C828.64,-297.93 724.29,-284.78 622.02,-271.13"/>
<polygon fill="darkgreen" stroke="darkgreen" points="622.19,-267.62 611.82,-269.76 621.26,-274.56 622.19,-267.62"/>
</g>
<!-- b2016 -->
<g id="node9" class="node">
<title>b2016</title>
<polygon fill="none" stroke="black" points="1048.5,-271 629.5,-271 629.5,-235 1048.5,-235 1048.5,-271"/>
<text text-anchor="middle" x="839" y="-249.3" font-family="Times New Roman,serif" font-size="14.00">[2016] Dueling Network Architectures for Deep Reinforcement Learning</text>
</g>
<!-- a2013&#45;&gt;b2016 -->
<g id="edge4" class="edge">
<title>a2013&#45;&gt;b2016</title>
<path fill="none" stroke="darkgreen" stroke-dasharray="5,2" d="M998.7,-307.99C968.79,-297.88 930.66,-284.99 899.16,-274.34"/>
<polygon fill="darkgreen" stroke="darkgreen" points="900.21,-271 889.62,-271.11 897.97,-277.63 900.21,-271"/>
</g>
<!-- c2016 -->
<g id="node10" class="node">
<title>c2016</title>
<polygon fill="none" stroke="black" points="2321,-271 1939,-271 1939,-235 2321,-235 2321,-271"/>
<text text-anchor="middle" x="2130" y="-249.3" font-family="Times New Roman,serif" font-size="14.00">[2016] Asynchronous Methods for Deep Reinforcement Learning</text>
</g>
<!-- a2013&#45;&gt;c2016 -->
<g id="edge10" class="edge">
<title>a2013&#45;&gt;c2016</title>
<path fill="none" stroke="darkgreen" stroke-dasharray="5,2" d="M1211.7,-316.07C1388.01,-306.15 1677.58,-289.11 1927,-271 1927.49,-270.96 1927.97,-270.93 1928.46,-270.89"/>
<polygon fill="darkgreen" stroke="darkgreen" points="1929.04,-274.36 1938.75,-270.13 1928.52,-267.38 1929.04,-274.36"/>
</g>
<!-- a2017 -->
<g id="node11" class="node">
<title>a2017</title>
<polygon fill="none" stroke="black" points="1453,-271 1067,-271 1067,-235 1453,-235 1453,-271"/>
<text text-anchor="middle" x="1260" y="-249.3" font-family="Times New Roman,serif" font-size="14.00">[2017] Deep Recurrent Q&#45;Learning for Partially Observable MDPs</text>
</g>
<!-- a2013&#45;&gt;a2017 -->
<g id="edge5" class="edge">
<title>a2013&#45;&gt;a2017</title>
<path fill="none" stroke="darkgreen" stroke-dasharray="5,2" d="M1099.54,-307.99C1129.59,-297.88 1167.9,-284.99 1199.55,-274.34"/>
<polygon fill="darkgreen" stroke="darkgreen" points="1200.78,-277.62 1209.14,-271.11 1198.55,-270.99 1200.78,-277.62"/>
</g>
<!-- b2017 -->
<g id="node12" class="node">
<title>b2017</title>
<polygon fill="none" stroke="black" points="1914.5,-271 1471.5,-271 1471.5,-235 1914.5,-235 1914.5,-271"/>
<text text-anchor="middle" x="1693" y="-249.3" font-family="Times New Roman,serif" font-size="14.00">[2017] Rainbow: Combining Improvements in Deep Reinforcement Learning</text>
</g>
<!-- a2013&#45;&gt;b2017 -->
<g id="edge6" class="edge">
<title>a2013&#45;&gt;b2017</title>
<path fill="none" stroke="darkgreen" stroke-dasharray="5,2" d="M1203.25,-307.99C1301.38,-297.18 1428.34,-283.18 1528.4,-272.15"/>
<polygon fill="darkgreen" stroke="darkgreen" points="1529.05,-275.6 1538.61,-271.02 1528.29,-268.64 1529.05,-275.6"/>
</g>
<!-- c2016&#45;&gt;c2017 -->
<g id="edge7" class="edge">
<title>c2016&#45;&gt;c2017</title>
<path fill="none" stroke="darkgreen" stroke-dasharray="5,2" d="M2203.29,-234.99C2248.28,-224.56 2306.01,-211.16 2352.72,-200.32"/>
<polygon fill="darkgreen" stroke="darkgreen" points="2353.56,-203.72 2362.51,-198.05 2351.98,-196.9 2353.56,-203.72"/>
</g>
<!-- d2017 -->
<g id="node14" class="node">
<title>d2017</title>
<polygon fill="none" stroke="black" points="2655,-52 2259,-52 2259,-16 2655,-16 2655,-52"/>
<text text-anchor="middle" x="2457" y="-30.3" font-family="Times New Roman,serif" font-size="14.00">[2017] Emergence of Locomotion Behaviours in Rich Environments</text>
</g>
<!-- c2017&#45;&gt;d2017 -->
<g id="edge8" class="edge">
<title>c2017&#45;&gt;d2017</title>
<path fill="none" stroke="darkgreen" stroke-dasharray="5,2" d="M2430.39,-161.8C2425.26,-143.48 2419.4,-113.76 2426,-89 2428.58,-79.34 2433.34,-69.6 2438.37,-61.11"/>
<polygon fill="darkgreen" stroke="darkgreen" points="2441.47,-62.77 2443.85,-52.45 2435.55,-59.03 2441.47,-62.77"/>
</g>
<!-- c2017&#45;&gt;e2017 -->
<g id="edge9" class="edge">
<title>c2017&#45;&gt;e2017</title>
<path fill="none" stroke="darkgreen" stroke-dasharray="5,2" d="M2469.77,-161.99C2488.99,-152.32 2513.26,-140.1 2533.85,-129.73"/>
<polygon fill="darkgreen" stroke="darkgreen" points="2535.66,-132.74 2543.01,-125.11 2532.51,-126.49 2535.66,-132.74"/>
</g>
<!-- e2017&#45;&gt;d2017 -->
<g id="edge13" class="edge">
<title>e2017&#45;&gt;d2017</title>
<path fill="none" stroke="darkgreen" stroke-dasharray="5,2" d="M2548.26,-88.99C2532.2,-79.49 2511.99,-67.54 2494.68,-57.29"/>
<polygon fill="darkgreen" stroke="darkgreen" points="2496.31,-54.19 2485.92,-52.11 2492.75,-60.22 2496.31,-54.19"/>
</g>
</g>
</svg>
