<?xml version="1.0" encoding="UTF-8" standalone="no"?>
<!DOCTYPE svg PUBLIC "-//W3C//DTD SVG 1.1//EN"
 "http://www.w3.org/Graphics/SVG/1.1/DTD/svg11.dtd">
<!-- Generated by graphviz version 2.44.1 (20200629.0800)
 -->
<!-- Title: ML_Math Pages: 1 -->
<svg width="2120pt" height="243pt"
 viewBox="0.00 0.00 2120.00 243.00" xmlns="http://www.w3.org/2000/svg" xmlns:xlink="http://www.w3.org/1999/xlink">
<g id="graph0" class="graph" transform="scale(1 1) rotate(0) translate(4 239)">
<title>ML_Math</title>
<polygon fill="white" stroke="transparent" points="-4,4 -4,-239 2116,-239 2116,4 -4,4"/>
<g id="clust4" class="cluster">
<title>cluster_dqn</title>
<polygon fill="none" stroke="black" points="8,-80 8,-227 1724,-227 1724,-80 8,-80"/>
<text text-anchor="middle" x="866" y="-211.8" font-family="Times New Roman,serif" font-size="14.00">DQN</text>
</g>
<g id="clust5" class="cluster">
<title>cluster_pg</title>
<polygon fill="none" stroke="black" points="1732,-8 1732,-227 2104,-227 2104,-8 1732,-8"/>
<text text-anchor="middle" x="1918" y="-211.8" font-family="Times New Roman,serif" font-size="14.00">Policy Gradient</text>
</g>
<!-- a2013 -->
<g id="node1" class="node">
<title>a2013</title>
<text text-anchor="middle" x="740" y="-174.3" font-family="Times New Roman,serif" font-size="14.00">Playing Atari with Deep Reinforcement Learning</text>
</g>
<!-- a2015 -->
<g id="node2" class="node">
<title>a2015</title>
<text text-anchor="middle" x="174" y="-102.3" font-family="Times New Roman,serif" font-size="14.00">Deep Reinforcement Learning with Double Q&#45;learning</text>
</g>
<!-- a2013&#45;&gt;a2015 -->
<g id="edge1" class="edge">
<title>a2013&#45;&gt;a2015</title>
<path fill="none" stroke="darkgreen" d="M602.26,-159.97C517.44,-149.47 408.72,-136.03 322.05,-125.31"/>
<polygon fill="darkgreen" stroke="darkgreen" points="322.22,-121.8 311.86,-124.05 321.36,-128.75 322.22,-121.8"/>
</g>
<!-- a2016 -->
<g id="node3" class="node">
<title>a2016</title>
<text text-anchor="middle" x="441" y="-102.3" font-family="Times New Roman,serif" font-size="14.00">Prioritized Experience Replay</text>
</g>
<!-- a2013&#45;&gt;a2016 -->
<g id="edge2" class="edge">
<title>a2013&#45;&gt;a2016</title>
<path fill="none" stroke="darkgreen" d="M667.24,-159.97C623.84,-149.8 568.6,-136.87 523.57,-126.33"/>
<polygon fill="darkgreen" stroke="darkgreen" points="524.36,-122.92 513.83,-124.05 522.77,-129.74 524.36,-122.92"/>
</g>
<!-- b2016 -->
<g id="node4" class="node">
<title>b2016</title>
<text text-anchor="middle" x="740" y="-102.3" font-family="Times New Roman,serif" font-size="14.00">Dueling Network Architectures for Deep Reinforcement Learning</text>
</g>
<!-- a2013&#45;&gt;b2016 -->
<g id="edge3" class="edge">
<title>a2013&#45;&gt;b2016</title>
<path fill="none" stroke="darkgreen" d="M740,-159.7C740,-151.98 740,-142.71 740,-134.11"/>
<polygon fill="darkgreen" stroke="darkgreen" points="743.5,-134.1 740,-124.1 736.5,-134.1 743.5,-134.1"/>
</g>
<!-- a2017 -->
<g id="node6" class="node">
<title>a2017</title>
<text text-anchor="middle" x="1121" y="-102.3" font-family="Times New Roman,serif" font-size="14.00">Deep Recurrent Q&#45;Learning for Partially Observable MDPs</text>
</g>
<!-- a2013&#45;&gt;a2017 -->
<g id="edge4" class="edge">
<title>a2013&#45;&gt;a2017</title>
<path fill="none" stroke="darkgreen" d="M832.72,-159.97C888.83,-149.66 960.48,-136.49 1018.31,-125.87"/>
<polygon fill="darkgreen" stroke="darkgreen" points="1019,-129.3 1028.2,-124.05 1017.73,-122.41 1019,-129.3"/>
</g>
<!-- b2017 -->
<g id="node7" class="node">
<title>b2017</title>
<text text-anchor="middle" x="1514" y="-102.3" font-family="Times New Roman,serif" font-size="14.00">Rainbow: Combining Improvements in Deep Reinforcement Learning</text>
</g>
<!-- a2013&#45;&gt;b2017 -->
<g id="edge5" class="edge">
<title>a2013&#45;&gt;b2017</title>
<path fill="none" stroke="darkgreen" d="M882.87,-164.08C1004.53,-153.08 1180.6,-137.15 1315.88,-124.92"/>
<polygon fill="darkgreen" stroke="darkgreen" points="1316.31,-128.39 1325.95,-124.01 1315.68,-121.42 1316.31,-128.39"/>
</g>
<!-- c2016 -->
<g id="node5" class="node">
<title>c2016</title>
<text text-anchor="middle" x="1918" y="-174.3" font-family="Times New Roman,serif" font-size="14.00">Asynchronous Methods for Deep Reinforcement Learning</text>
</g>
<!-- c2017 -->
<g id="node8" class="node">
<title>c2017</title>
<text text-anchor="middle" x="1918" y="-102.3" font-family="Times New Roman,serif" font-size="14.00">Trust Region Policy Optimization</text>
</g>
<!-- c2016&#45;&gt;c2017 -->
<g id="edge6" class="edge">
<title>c2016&#45;&gt;c2017</title>
<path fill="none" stroke="darkgreen" d="M1918,-159.7C1918,-151.98 1918,-142.71 1918,-134.11"/>
<polygon fill="darkgreen" stroke="darkgreen" points="1921.5,-134.1 1918,-124.1 1914.5,-134.1 1921.5,-134.1"/>
</g>
<!-- d2017 -->
<g id="node9" class="node">
<title>d2017</title>
<text text-anchor="middle" x="1918" y="-30.3" font-family="Times New Roman,serif" font-size="14.00">Emergence of Locomotion Behaviours in Rich Environments</text>
</g>
<!-- c2017&#45;&gt;d2017 -->
<g id="edge7" class="edge">
<title>c2017&#45;&gt;d2017</title>
<path fill="none" stroke="darkgreen" d="M1918,-87.7C1918,-79.98 1918,-70.71 1918,-62.11"/>
<polygon fill="darkgreen" stroke="darkgreen" points="1921.5,-62.1 1918,-52.1 1914.5,-62.1 1921.5,-62.1"/>
</g>
</g>
</svg>
