<?xml version="1.0" encoding="UTF-8" standalone="no"?>
<!DOCTYPE svg PUBLIC "-//W3C//DTD SVG 1.1//EN"
 "http://www.w3.org/Graphics/SVG/1.1/DTD/svg11.dtd">
<!-- Generated by graphviz version 2.44.1 (20200629.0800)
 -->
<!-- Title: ML_Math Pages: 1 -->
<svg width="3059pt" height="499pt"
 viewBox="0.00 0.00 3059.00 499.00" xmlns="http://www.w3.org/2000/svg" xmlns:xlink="http://www.w3.org/1999/xlink">
<g id="graph0" class="graph" transform="scale(1 1) rotate(0) translate(4 495)">
<title>ML_Math</title>
<polygon fill="white" stroke="transparent" points="-4,4 -4,-495 3055,-495 3055,4 -4,4"/>
<g id="clust3" class="cluster">
<title>cluster_dqn</title>
<polygon fill="none" stroke="black" stroke-dasharray="5,2" points="8,-227 8,-375 1923,-375 1923,-227 8,-227"/>
<text text-anchor="middle" x="965.5" y="-359.8" font-family="Times New Roman,serif" font-size="14.00">DQN</text>
</g>
<g id="clust4" class="cluster">
<title>cluster_pg</title>
<polygon fill="none" stroke="black" stroke-dasharray="5,2" points="1931,-8 1931,-483 3043,-483 3043,-8 1931,-8"/>
<text text-anchor="middle" x="2487" y="-467.8" font-family="Times New Roman,serif" font-size="14.00">Policy Gradient</text>
</g>
<!-- a1993 -->
<g id="node1" class="node">
<title>a1993</title>
<polygon fill="none" stroke="black" points="1243.5,-452 854.5,-452 854.5,-416 1243.5,-416 1243.5,-452"/>
<text text-anchor="middle" x="1049" y="-430.3" font-family="Times New Roman,serif" font-size="14.00">[1993] Reinforcement Learning for Robots Using Neural Networks</text>
</g>
<!-- a2013 -->
<g id="node6" class="node">
<title>a2013</title>
<polygon fill="none" stroke="black" points="1211.5,-344 886.5,-344 886.5,-308 1211.5,-308 1211.5,-344"/>
<text text-anchor="middle" x="1049" y="-322.3" font-family="Times New Roman,serif" font-size="14.00">[2013] Playing Atari with Deep Reinforcement Learning</text>
</g>
<!-- a1993&#45;&gt;a2013 -->
<g id="edge1" class="edge">
<title>a1993&#45;&gt;a2013</title>
<path fill="none" stroke="darkgreen" stroke-dasharray="5,2" d="M1049,-415.97C1049,-399.38 1049,-373.88 1049,-354.43"/>
<polygon fill="darkgreen" stroke="darkgreen" points="1052.5,-354.34 1049,-344.34 1045.5,-354.34 1052.5,-354.34"/>
<text text-anchor="middle" x="1130.5" y="-386.8" font-family="Times New Roman,serif" font-size="14.00">experience replay mechanism</text>
</g>
<!-- a1994 -->
<g id="node2" class="node">
<title>a1994</title>
<polygon fill="none" stroke="black" points="3035,-452 2497,-452 2497,-416 3035,-416 3035,-452"/>
<text text-anchor="middle" x="2766" y="-430.3" font-family="Times New Roman,serif" font-size="14.00">[1994]Reinforcement Learning Algorithm for Partially Observable Markov Decision Problems</text>
</g>
<!-- a1999 -->
<g id="node4" class="node">
<title>a1999</title>
<polygon fill="none" stroke="black" points="2818,-344 2296,-344 2296,-308 2818,-308 2818,-344"/>
<text text-anchor="middle" x="2557" y="-322.3" font-family="Times New Roman,serif" font-size="14.00">[1999] Policy Gradient Methods for Reinforcement Learning with Function Approximation</text>
</g>
<!-- a1994&#45;&gt;a1999 -->
<g id="edge17" class="edge">
<title>a1994&#45;&gt;a1999</title>
<path fill="none" stroke="darkgreen" stroke-dasharray="5,2" d="M2732.42,-415.97C2696.42,-397.71 2639.16,-368.67 2599.91,-348.76"/>
<polygon fill="darkgreen" stroke="darkgreen" points="2601.34,-345.57 2590.84,-344.16 2598.18,-351.81 2601.34,-345.57"/>
</g>
<!-- a1995 -->
<g id="node3" class="node">
<title>a1995</title>
<polygon fill="none" stroke="black" points="2479,-452 1939,-452 1939,-416 2479,-416 2479,-452"/>
<text text-anchor="middle" x="2209" y="-430.3" font-family="Times New Roman,serif" font-size="14.00">[1995] Simple statistical gradient&#45;following algorithms for connectionist reinforcement learning</text>
</g>
<!-- a1995&#45;&gt;a1999 -->
<g id="edge16" class="edge">
<title>a1995&#45;&gt;a1999</title>
<path fill="none" stroke="darkgreen" stroke-dasharray="5,2" d="M2264.91,-415.97C2326.59,-397.18 2425.75,-366.98 2491.14,-347.06"/>
<polygon fill="darkgreen" stroke="darkgreen" points="2492.39,-350.34 2500.94,-344.08 2490.35,-343.64 2492.39,-350.34"/>
</g>
<!-- a2001 -->
<g id="node5" class="node">
<title>a2001</title>
<polygon fill="none" stroke="black" points="2537.5,-271 2340.5,-271 2340.5,-235 2537.5,-235 2537.5,-271"/>
<text text-anchor="middle" x="2439" y="-249.3" font-family="Times New Roman,serif" font-size="14.00">[2001]A Natural Policy Gradient</text>
</g>
<!-- a1999&#45;&gt;a2001 -->
<g id="edge15" class="edge">
<title>a1999&#45;&gt;a2001</title>
<path fill="none" stroke="darkgreen" stroke-dasharray="5,2" d="M2528.74,-307.99C2512.94,-298.49 2493.07,-286.54 2476.05,-276.29"/>
<polygon fill="darkgreen" stroke="darkgreen" points="2477.82,-273.27 2467.44,-271.11 2474.21,-279.27 2477.82,-273.27"/>
</g>
<!-- c2017 -->
<g id="node13" class="node">
<title>c2017</title>
<polygon fill="none" stroke="black" points="2561,-198 2317,-198 2317,-162 2561,-162 2561,-198"/>
<text text-anchor="middle" x="2439" y="-176.3" font-family="Times New Roman,serif" font-size="14.00">[2017] Trust Region Policy Optimization</text>
</g>
<!-- a1999&#45;&gt;c2017 -->
<g id="edge12" class="edge">
<title>a1999&#45;&gt;c2017</title>
<path fill="none" stroke="darkgreen" stroke-dasharray="5,2" d="M2560.11,-307.92C2562.96,-286.78 2564.45,-250.68 2547,-227 2539.51,-216.84 2529.33,-208.9 2518.18,-202.7"/>
<polygon fill="darkgreen" stroke="darkgreen" points="2519.58,-199.49 2509.08,-198.1 2516.42,-205.73 2519.58,-199.49"/>
</g>
<!-- e2017 -->
<g id="node15" class="node">
<title>e2017</title>
<polygon fill="none" stroke="black" points="2722.5,-125 2437.5,-125 2437.5,-89 2722.5,-89 2722.5,-125"/>
<text text-anchor="middle" x="2580" y="-103.3" font-family="Times New Roman,serif" font-size="14.00">[2017] Proximal Policy Optimization Algorithms</text>
</g>
<!-- a1999&#45;&gt;e2017 -->
<g id="edge11" class="edge">
<title>a1999&#45;&gt;e2017</title>
<path fill="none" stroke="darkgreen" stroke-dasharray="5,2" d="M2562.09,-307.68C2563.57,-302.08 2565.04,-295.82 2566,-290 2575.02,-235.6 2578.24,-171.07 2579.39,-135.31"/>
<polygon fill="darkgreen" stroke="darkgreen" points="2582.89,-135.28 2579.68,-125.18 2575.89,-135.08 2582.89,-135.28"/>
</g>
<!-- a2001&#45;&gt;c2017 -->
<g id="edge14" class="edge">
<title>a2001&#45;&gt;c2017</title>
<path fill="none" stroke="darkgreen" stroke-dasharray="5,2" d="M2439,-234.81C2439,-226.79 2439,-217.05 2439,-208.07"/>
<polygon fill="darkgreen" stroke="darkgreen" points="2442.5,-208.03 2439,-198.03 2435.5,-208.03 2442.5,-208.03"/>
</g>
<!-- a2015 -->
<g id="node7" class="node">
<title>a2015</title>
<polygon fill="none" stroke="black" points="372,-271 16,-271 16,-235 372,-235 372,-271"/>
<text text-anchor="middle" x="194" y="-249.3" font-family="Times New Roman,serif" font-size="14.00">[2015] Deep Reinforcement Learning with Double Q&#45;learning</text>
</g>
<!-- a2013&#45;&gt;a2015 -->
<g id="edge2" class="edge">
<title>a2013&#45;&gt;a2015</title>
<path fill="none" stroke="darkgreen" stroke-dasharray="5,2" d="M886.21,-312.25C753.64,-301.77 561.33,-286.33 382.26,-271.02"/>
<polygon fill="darkgreen" stroke="darkgreen" points="382.38,-267.51 372.12,-270.15 381.78,-274.49 382.38,-267.51"/>
</g>
<!-- a2016 -->
<g id="node8" class="node">
<title>a2016</title>
<polygon fill="none" stroke="black" points="611.5,-271 390.5,-271 390.5,-235 611.5,-235 611.5,-271"/>
<text text-anchor="middle" x="501" y="-249.3" font-family="Times New Roman,serif" font-size="14.00">[2016] Prioritized Experience Replay</text>
</g>
<!-- a2013&#45;&gt;a2016 -->
<g id="edge3" class="edge">
<title>a2013&#45;&gt;a2016</title>
<path fill="none" stroke="darkgreen" stroke-dasharray="5,2" d="M909.66,-307.96C828.64,-297.93 724.29,-284.78 622.02,-271.13"/>
<polygon fill="darkgreen" stroke="darkgreen" points="622.19,-267.62 611.82,-269.76 621.26,-274.56 622.19,-267.62"/>
</g>
<!-- b2016 -->
<g id="node9" class="node">
<title>b2016</title>
<polygon fill="none" stroke="black" points="1048.5,-271 629.5,-271 629.5,-235 1048.5,-235 1048.5,-271"/>
<text text-anchor="middle" x="839" y="-249.3" font-family="Times New Roman,serif" font-size="14.00">[2016] Dueling Network Architectures for Deep Reinforcement Learning</text>
</g>
<!-- a2013&#45;&gt;b2016 -->
<g id="edge4" class="edge">
<title>a2013&#45;&gt;b2016</title>
<path fill="none" stroke="darkgreen" stroke-dasharray="5,2" d="M998.7,-307.99C968.79,-297.88 930.66,-284.99 899.16,-274.34"/>
<polygon fill="darkgreen" stroke="darkgreen" points="900.21,-271 889.62,-271.11 897.97,-277.63 900.21,-271"/>
</g>
<!-- c2016 -->
<g id="node10" class="node">
<title>c2016</title>
<polygon fill="none" stroke="black" points="2321,-271 1939,-271 1939,-235 2321,-235 2321,-271"/>
<text text-anchor="middle" x="2130" y="-249.3" font-family="Times New Roman,serif" font-size="14.00">[2016] Asynchronous Methods for Deep Reinforcement Learning</text>
</g>
<!-- a2013&#45;&gt;c2016 -->
<g id="edge10" class="edge">
<title>a2013&#45;&gt;c2016</title>
<path fill="none" stroke="darkgreen" stroke-dasharray="5,2" d="M1211.7,-316.07C1388.01,-306.15 1677.58,-289.11 1927,-271 1927.49,-270.96 1927.97,-270.93 1928.46,-270.89"/>
<polygon fill="darkgreen" stroke="darkgreen" points="1929.04,-274.36 1938.75,-270.13 1928.52,-267.38 1929.04,-274.36"/>
</g>
<!-- a2017 -->
<g id="node11" class="node">
<title>a2017</title>
<polygon fill="none" stroke="black" points="1453,-271 1067,-271 1067,-235 1453,-235 1453,-271"/>
<text text-anchor="middle" x="1260" y="-249.3" font-family="Times New Roman,serif" font-size="14.00">[2017] Deep Recurrent Q&#45;Learning for Partially Observable MDPs</text>
</g>
<!-- a2013&#45;&gt;a2017 -->
<g id="edge5" class="edge">
<title>a2013&#45;&gt;a2017</title>
<path fill="none" stroke="darkgreen" stroke-dasharray="5,2" d="M1099.54,-307.99C1129.59,-297.88 1167.9,-284.99 1199.55,-274.34"/>
<polygon fill="darkgreen" stroke="darkgreen" points="1200.78,-277.62 1209.14,-271.11 1198.55,-270.99 1200.78,-277.62"/>
</g>
<!-- b2017 -->
<g id="node12" class="node">
<title>b2017</title>
<polygon fill="none" stroke="black" points="1914.5,-271 1471.5,-271 1471.5,-235 1914.5,-235 1914.5,-271"/>
<text text-anchor="middle" x="1693" y="-249.3" font-family="Times New Roman,serif" font-size="14.00">[2017] Rainbow: Combining Improvements in Deep Reinforcement Learning</text>
</g>
<!-- a2013&#45;&gt;b2017 -->
<g id="edge6" class="edge">
<title>a2013&#45;&gt;b2017</title>
<path fill="none" stroke="darkgreen" stroke-dasharray="5,2" d="M1203.25,-307.99C1301.38,-297.18 1428.34,-283.18 1528.4,-272.15"/>
<polygon fill="darkgreen" stroke="darkgreen" points="1529.05,-275.6 1538.61,-271.02 1528.29,-268.64 1529.05,-275.6"/>
</g>
<!-- c2016&#45;&gt;c2017 -->
<g id="edge7" class="edge">
<title>c2016&#45;&gt;c2017</title>
<path fill="none" stroke="darkgreen" stroke-dasharray="5,2" d="M2204.01,-234.99C2249.44,-224.56 2307.74,-211.16 2354.9,-200.32"/>
<polygon fill="darkgreen" stroke="darkgreen" points="2355.83,-203.7 2364.79,-198.05 2354.26,-196.88 2355.83,-203.7"/>
</g>
<!-- f2017 -->
<g id="node16" class="node">
<title>f2017</title>
<polygon fill="none" stroke="black" points="2299,-198 1945,-198 1945,-162 2299,-162 2299,-198"/>
<text text-anchor="middle" x="2122" y="-176.3" font-family="Times New Roman,serif" font-size="14.00">[2017] Sample Efficient Actor&#45;Critic with Experience Replay</text>
</g>
<!-- c2016&#45;&gt;f2017 -->
<g id="edge18" class="edge">
<title>c2016&#45;&gt;f2017</title>
<path fill="none" stroke="darkgreen" stroke-dasharray="5,2" d="M2128.06,-234.81C2127.16,-226.79 2126.06,-217.05 2125.05,-208.07"/>
<polygon fill="darkgreen" stroke="darkgreen" points="2128.52,-207.57 2123.92,-198.03 2121.56,-208.36 2128.52,-207.57"/>
</g>
<!-- d2017 -->
<g id="node14" class="node">
<title>d2017</title>
<polygon fill="none" stroke="black" points="2658,-52 2262,-52 2262,-16 2658,-16 2658,-52"/>
<text text-anchor="middle" x="2460" y="-30.3" font-family="Times New Roman,serif" font-size="14.00">[2017] Emergence of Locomotion Behaviours in Rich Environments</text>
</g>
<!-- c2017&#45;&gt;d2017 -->
<g id="edge8" class="edge">
<title>c2017&#45;&gt;d2017</title>
<path fill="none" stroke="darkgreen" stroke-dasharray="5,2" d="M2433.39,-161.8C2428.26,-143.48 2422.4,-113.76 2429,-89 2431.58,-79.34 2436.34,-69.6 2441.37,-61.11"/>
<polygon fill="darkgreen" stroke="darkgreen" points="2444.47,-62.77 2446.85,-52.45 2438.55,-59.03 2444.47,-62.77"/>
</g>
<!-- c2017&#45;&gt;e2017 -->
<g id="edge9" class="edge">
<title>c2017&#45;&gt;e2017</title>
<path fill="none" stroke="darkgreen" stroke-dasharray="5,2" d="M2472.77,-161.99C2491.99,-152.32 2516.26,-140.1 2536.85,-129.73"/>
<polygon fill="darkgreen" stroke="darkgreen" points="2538.66,-132.74 2546.01,-125.11 2535.51,-126.49 2538.66,-132.74"/>
</g>
<!-- e2017&#45;&gt;d2017 -->
<g id="edge13" class="edge">
<title>e2017&#45;&gt;d2017</title>
<path fill="none" stroke="darkgreen" stroke-dasharray="5,2" d="M2551.26,-88.99C2535.2,-79.49 2514.99,-67.54 2497.68,-57.29"/>
<polygon fill="darkgreen" stroke="darkgreen" points="2499.31,-54.19 2488.92,-52.11 2495.75,-60.22 2499.31,-54.19"/>
</g>
</g>
</svg>
