<?xml version="1.0" encoding="UTF-8" standalone="no"?>
<!DOCTYPE svg PUBLIC "-//W3C//DTD SVG 1.1//EN"
 "http://www.w3.org/Graphics/SVG/1.1/DTD/svg11.dtd">
<!-- Generated by graphviz version 2.44.1 (20200629.0800)
 -->
<!-- Title: ML_Math Pages: 1 -->
<svg width="885pt" height="548pt"
 viewBox="0.00 0.00 884.50 548.00" xmlns="http://www.w3.org/2000/svg" xmlns:xlink="http://www.w3.org/1999/xlink">
<g id="graph0" class="graph" transform="scale(1 1) rotate(0) translate(4 544)">
<title>ML_Math</title>
<polygon fill="white" stroke="transparent" points="-4,4 -4,-544 880.5,-544 880.5,4 -4,4"/>
<!-- 1988 -->
<g id="node1" class="node">
<title>1988</title>
<text text-anchor="middle" x="27" y="-518.3" font-family="Times New Roman,serif" font-size="14.00">1988</text>
</g>
<!-- 1992 -->
<g id="node2" class="node">
<title>1992</title>
<text text-anchor="middle" x="27" y="-446.3" font-family="Times New Roman,serif" font-size="14.00">1992</text>
</g>
<!-- 1988&#45;&gt;1992 -->
<g id="edge1" class="edge">
<title>1988&#45;&gt;1992</title>
<path fill="none" stroke="black" stroke-dasharray="5,2" d="M27,-503.7C27,-495.98 27,-486.71 27,-478.11"/>
<polygon fill="black" stroke="black" points="30.5,-478.1 27,-468.1 23.5,-478.1 30.5,-478.1"/>
</g>
<!-- 1994 -->
<g id="node3" class="node">
<title>1994</title>
<text text-anchor="middle" x="27" y="-374.3" font-family="Times New Roman,serif" font-size="14.00">1994</text>
</g>
<!-- 1992&#45;&gt;1994 -->
<g id="edge2" class="edge">
<title>1992&#45;&gt;1994</title>
<path fill="none" stroke="black" stroke-dasharray="5,2" d="M27,-431.7C27,-423.98 27,-414.71 27,-406.11"/>
<polygon fill="black" stroke="black" points="30.5,-406.1 27,-396.1 23.5,-406.1 30.5,-406.1"/>
</g>
<!-- 1999 -->
<g id="node4" class="node">
<title>1999</title>
<text text-anchor="middle" x="27" y="-302.3" font-family="Times New Roman,serif" font-size="14.00">1999</text>
</g>
<!-- 1994&#45;&gt;1999 -->
<g id="edge3" class="edge">
<title>1994&#45;&gt;1999</title>
<path fill="none" stroke="black" stroke-dasharray="5,2" d="M27,-359.7C27,-351.98 27,-342.71 27,-334.11"/>
<polygon fill="black" stroke="black" points="30.5,-334.1 27,-324.1 23.5,-334.1 30.5,-334.1"/>
</g>
<!-- 2001 -->
<g id="node5" class="node">
<title>2001</title>
<text text-anchor="middle" x="27" y="-230.3" font-family="Times New Roman,serif" font-size="14.00">2001</text>
</g>
<!-- 1999&#45;&gt;2001 -->
<g id="edge4" class="edge">
<title>1999&#45;&gt;2001</title>
<path fill="none" stroke="black" stroke-dasharray="5,2" d="M27,-287.7C27,-279.98 27,-270.71 27,-262.11"/>
<polygon fill="black" stroke="black" points="30.5,-262.1 27,-252.1 23.5,-262.1 30.5,-262.1"/>
</g>
<!-- 2002 -->
<g id="node6" class="node">
<title>2002</title>
<text text-anchor="middle" x="27" y="-158.3" font-family="Times New Roman,serif" font-size="14.00">2002</text>
</g>
<!-- 2001&#45;&gt;2002 -->
<g id="edge5" class="edge">
<title>2001&#45;&gt;2002</title>
<path fill="none" stroke="black" stroke-dasharray="5,2" d="M27,-215.7C27,-207.98 27,-198.71 27,-190.11"/>
<polygon fill="black" stroke="black" points="30.5,-190.1 27,-180.1 23.5,-190.1 30.5,-190.1"/>
</g>
<!-- 2016 -->
<g id="node7" class="node">
<title>2016</title>
<text text-anchor="middle" x="27" y="-86.3" font-family="Times New Roman,serif" font-size="14.00">2016</text>
</g>
<!-- 2002&#45;&gt;2016 -->
<g id="edge6" class="edge">
<title>2002&#45;&gt;2016</title>
<path fill="none" stroke="black" stroke-dasharray="5,2" d="M27,-143.7C27,-135.98 27,-126.71 27,-118.11"/>
<polygon fill="black" stroke="black" points="30.5,-118.1 27,-108.1 23.5,-118.1 30.5,-118.1"/>
</g>
<!-- 2017 -->
<g id="node8" class="node">
<title>2017</title>
<text text-anchor="middle" x="27" y="-14.3" font-family="Times New Roman,serif" font-size="14.00">2017</text>
</g>
<!-- 2016&#45;&gt;2017 -->
<g id="edge7" class="edge">
<title>2016&#45;&gt;2017</title>
<path fill="none" stroke="black" stroke-dasharray="5,2" d="M27,-71.7C27,-63.98 27,-54.71 27,-46.11"/>
<polygon fill="black" stroke="black" points="30.5,-46.1 27,-36.1 23.5,-46.1 30.5,-46.1"/>
</g>
<!-- a1988 -->
<g id="node9" class="node">
<title>a1988</title>
<polygon fill="none" stroke="black" points="502.5,-540 89.5,-540 89.5,-504 502.5,-504 502.5,-540"/>
<text text-anchor="middle" x="296" y="-518.3" font-family="Times New Roman,serif" font-size="14.00">On the Use of Backpropagation in Associative Reinforcement Learning</text>
</g>
<!-- a1992 -->
<g id="node10" class="node">
<title>a1992</title>
<polygon fill="none" stroke="black" points="343.5,-468 248.5,-468 248.5,-432 343.5,-432 343.5,-468"/>
<text text-anchor="middle" x="296" y="-446.3" font-family="Times New Roman,serif" font-size="14.00">REINFORCE</text>
</g>
<!-- a1988&#45;&gt;a1992 -->
<g id="edge16" class="edge">
<title>a1988&#45;&gt;a1992</title>
<path fill="none" stroke="darkgreen" d="M296,-503.7C296,-495.98 296,-486.71 296,-478.11"/>
<polygon fill="darkgreen" stroke="darkgreen" points="299.5,-478.1 296,-468.1 292.5,-478.1 299.5,-478.1"/>
</g>
<!-- a1999 -->
<g id="node12" class="node">
<title>a1999</title>
<polygon fill="none" stroke="black" points="685,-324 203,-324 203,-288 685,-288 685,-324"/>
<text text-anchor="middle" x="444" y="-302.3" font-family="Times New Roman,serif" font-size="14.00">Policy Gradient Methods for Reinforcement Learning with Function Approximation</text>
</g>
<!-- a1992&#45;&gt;a1999 -->
<g id="edge12" class="edge">
<title>a1992&#45;&gt;a1999</title>
<path fill="none" stroke="darkgreen" d="M295.16,-431.9C295.12,-412.34 297.99,-380.38 315,-360 326.65,-346.04 342.57,-335.71 359.24,-328.08"/>
<polygon fill="darkgreen" stroke="darkgreen" points="360.73,-331.25 368.56,-324.12 357.99,-324.81 360.73,-331.25"/>
</g>
<!-- a1994 -->
<g id="node11" class="node">
<title>a1994</title>
<polygon fill="none" stroke="black" points="826,-396 324,-396 324,-360 826,-360 826,-396"/>
<text text-anchor="middle" x="575" y="-374.3" font-family="Times New Roman,serif" font-size="14.00">Reinforcement Learning Algorithm for Partially Observable Markov Decision Problems</text>
</g>
<!-- a1994&#45;&gt;a1999 -->
<g id="edge13" class="edge">
<title>a1994&#45;&gt;a1999</title>
<path fill="none" stroke="darkgreen" d="M542.95,-359.88C525.51,-350.55 503.73,-338.92 485.06,-328.94"/>
<polygon fill="darkgreen" stroke="darkgreen" points="486.64,-325.82 476.17,-324.19 483.34,-331.99 486.64,-325.82"/>
</g>
<!-- a2001 -->
<g id="node13" class="node">
<title>a2001</title>
<polygon fill="none" stroke="black" points="469.5,-252 308.5,-252 308.5,-216 469.5,-216 469.5,-252"/>
<text text-anchor="middle" x="389" y="-230.3" font-family="Times New Roman,serif" font-size="14.00">A Natural Policy Gradient</text>
</g>
<!-- a1999&#45;&gt;a2001 -->
<g id="edge11" class="edge">
<title>a1999&#45;&gt;a2001</title>
<path fill="none" stroke="darkgreen" d="M430.4,-287.7C423.88,-279.39 415.93,-269.28 408.75,-260.14"/>
<polygon fill="darkgreen" stroke="darkgreen" points="411.37,-257.81 402.44,-252.1 405.87,-262.13 411.37,-257.81"/>
</g>
<!-- c2017 -->
<g id="node16" class="node">
<title>c2017</title>
<polygon fill="none" stroke="black" points="625,-36 571,-36 571,0 625,0 625,-36"/>
<text text-anchor="middle" x="598" y="-14.3" font-family="Times New Roman,serif" font-size="14.00">TRPO</text>
</g>
<!-- a1999&#45;&gt;c2017 -->
<g id="edge9" class="edge">
<title>a1999&#45;&gt;c2017</title>
<path fill="none" stroke="darkgreen" d="M456.79,-287.98C463.97,-277.89 472.72,-264.64 479,-252 501.63,-206.43 494.56,-189.67 517,-144 534.87,-107.62 561.23,-68.93 578.98,-44.39"/>
<polygon fill="darkgreen" stroke="darkgreen" points="582.02,-46.16 585.09,-36.02 576.37,-42.03 582.02,-46.16"/>
</g>
<!-- a2002 -->
<g id="node14" class="node">
<title>a2002</title>
<polygon fill="none" stroke="black" points="870,-180 526,-180 526,-144 870,-144 870,-180"/>
<text text-anchor="middle" x="698" y="-158.3" font-family="Times New Roman,serif" font-size="14.00">Approximately optimal approximate reinforcement learning</text>
</g>
<!-- a2002&#45;&gt;c2017 -->
<g id="edge15" class="edge">
<title>a2002&#45;&gt;c2017</title>
<path fill="none" stroke="darkgreen" d="M685.94,-143.87C668.52,-119.14 636.2,-73.24 615.97,-44.51"/>
<polygon fill="darkgreen" stroke="darkgreen" points="618.72,-42.35 610.11,-36.19 613,-46.38 618.72,-42.35"/>
</g>
<!-- a2016 -->
<g id="node15" class="node">
<title>a2016</title>
<polygon fill="none" stroke="black" points="780,-108 726,-108 726,-72 780,-72 780,-108"/>
<text text-anchor="middle" x="753" y="-86.3" font-family="Times New Roman,serif" font-size="14.00">A3C</text>
</g>
<!-- a2017 -->
<g id="node18" class="node">
<title>a2017</title>
<polygon fill="none" stroke="black" points="769,-36 715,-36 715,0 769,0 769,-36"/>
<text text-anchor="middle" x="742" y="-14.3" font-family="Times New Roman,serif" font-size="14.00">PPO</text>
</g>
<!-- c2017&#45;&gt;a2017 -->
<g id="edge8" class="edge">
<title>c2017&#45;&gt;a2017</title>
<path fill="none" stroke="darkgreen" d="M615.08,-36.22C622.85,-43.2 632.62,-50.36 643,-54 665.65,-61.94 674.35,-61.94 697,-54 704.14,-51.5 710.99,-47.33 717.09,-42.7"/>
<polygon fill="darkgreen" stroke="darkgreen" points="719.45,-45.29 724.92,-36.22 714.99,-39.9 719.45,-45.29"/>
</g>
<!-- b2017 -->
<g id="node19" class="node">
<title>b2017</title>
<polygon fill="none" stroke="black" points="697,-36 643,-36 643,0 697,0 697,-36"/>
<text text-anchor="middle" x="670" y="-14.3" font-family="Times New Roman,serif" font-size="14.00">ACER</text>
</g>
<!-- c2017&#45;&gt;b2017 -->
<g id="edge14" class="edge">
<title>c2017&#45;&gt;b2017</title>
<path fill="none" stroke="darkgreen" d="M625.28,-18C627.74,-18 630.19,-18 632.65,-18"/>
<polygon fill="darkgreen" stroke="darkgreen" points="632.75,-21.5 642.75,-18 632.75,-14.5 632.75,-21.5"/>
</g>
<!-- d2017 -->
<g id="node17" class="node">
<title>d2017</title>
<polygon fill="none" stroke="black" points="876.5,-36 787.5,-36 787.5,0 876.5,0 876.5,-36"/>
<text text-anchor="middle" x="832" y="-14.3" font-family="Times New Roman,serif" font-size="14.00">PPO&#45;Penalty</text>
</g>
<!-- a2017&#45;&gt;d2017 -->
<g id="edge10" class="edge">
<title>a2017&#45;&gt;d2017</title>
<path fill="none" stroke="darkgreen" d="M769.07,-18C771.72,-18 774.38,-18 777.03,-18"/>
<polygon fill="darkgreen" stroke="darkgreen" points="777.26,-21.5 787.26,-18 777.26,-14.5 777.26,-21.5"/>
</g>
</g>
</svg>
