<?xml version="1.0" encoding="UTF-8" standalone="no"?>
<!DOCTYPE svg PUBLIC "-//W3C//DTD SVG 1.1//EN"
 "http://www.w3.org/Graphics/SVG/1.1/DTD/svg11.dtd">
<!-- Generated by graphviz version 2.44.1 (20200629.0800)
 -->
<!-- Title: ML_Math Pages: 1 -->
<svg width="964pt" height="459pt"
 viewBox="0.00 0.00 964.00 459.00" xmlns="http://www.w3.org/2000/svg" xmlns:xlink="http://www.w3.org/1999/xlink">
<g id="graph0" class="graph" transform="scale(1 1) rotate(0) translate(4 455)">
<title>ML_Math</title>
<polygon fill="white" stroke="transparent" points="-4,4 -4,-455 960,-455 960,4 -4,4"/>
<g id="clust3" class="cluster">
<title>cluster_pg</title>
<polygon fill="none" stroke="black" stroke-dasharray="5,2" points="8,-8 8,-443 948,-443 948,-8 8,-8"/>
<text text-anchor="middle" x="478" y="-427.8" font-family="Times New Roman,serif" font-size="14.00">Policy Gradient</text>
</g>
<!-- a1988 -->
<g id="node1" class="node">
<title>a1988</title>
<polygon fill="none" stroke="black" points="922.5,-412 469.5,-412 469.5,-376 922.5,-376 922.5,-412"/>
<text text-anchor="middle" x="696" y="-390.3" font-family="Times New Roman,serif" font-size="14.00">[1988] On the Use of Backpropagation in Associative Reinforcement Learning</text>
</g>
<!-- a1992 -->
<g id="node2" class="node">
<title>a1992</title>
<polygon fill="none" stroke="black" points="763.5,-340 628.5,-340 628.5,-304 763.5,-304 763.5,-340"/>
<text text-anchor="middle" x="696" y="-318.3" font-family="Times New Roman,serif" font-size="14.00">[1992] REINFORCE</text>
</g>
<!-- a1988&#45;&gt;a1992 -->
<g id="edge9" class="edge">
<title>a1988&#45;&gt;a1992</title>
<path fill="none" stroke="darkgreen" d="M696,-375.7C696,-367.98 696,-358.71 696,-350.11"/>
<polygon fill="darkgreen" stroke="darkgreen" points="699.5,-350.1 696,-340.1 692.5,-350.1 699.5,-350.1"/>
</g>
<!-- a1999 -->
<g id="node4" class="node">
<title>a1999</title>
<polygon fill="none" stroke="black" points="940,-268 418,-268 418,-232 940,-232 940,-268"/>
<text text-anchor="middle" x="679" y="-246.3" font-family="Times New Roman,serif" font-size="14.00">[1999] Policy Gradient Methods for Reinforcement Learning with Function Approximation</text>
</g>
<!-- a1992&#45;&gt;a1999 -->
<g id="edge5" class="edge">
<title>a1992&#45;&gt;a1999</title>
<path fill="none" stroke="darkgreen" d="M691.8,-303.7C689.9,-295.9 687.62,-286.51 685.52,-277.83"/>
<polygon fill="darkgreen" stroke="darkgreen" points="688.92,-277 683.15,-268.1 682.11,-278.65 688.92,-277"/>
</g>
<!-- a1994 -->
<g id="node3" class="node">
<title>a1994</title>
<polygon fill="none" stroke="black" points="610,-340 68,-340 68,-304 610,-304 610,-340"/>
<text text-anchor="middle" x="339" y="-318.3" font-family="Times New Roman,serif" font-size="14.00">[1994] Reinforcement Learning Algorithm for Partially Observable Markov Decision Problems</text>
</g>
<!-- a1994&#45;&gt;a1999 -->
<g id="edge6" class="edge">
<title>a1994&#45;&gt;a1999</title>
<path fill="none" stroke="darkgreen" d="M421.74,-303.97C471.4,-293.74 534.7,-280.71 586.08,-270.13"/>
<polygon fill="darkgreen" stroke="darkgreen" points="587.1,-273.49 596.19,-268.05 585.69,-266.64 587.1,-273.49"/>
</g>
<!-- a2001 -->
<g id="node5" class="node">
<title>a2001</title>
<polygon fill="none" stroke="black" points="779,-196 579,-196 579,-160 779,-160 779,-196"/>
<text text-anchor="middle" x="679" y="-174.3" font-family="Times New Roman,serif" font-size="14.00">[2001] A Natural Policy Gradient</text>
</g>
<!-- a1999&#45;&gt;a2001 -->
<g id="edge4" class="edge">
<title>a1999&#45;&gt;a2001</title>
<path fill="none" stroke="darkgreen" d="M679,-231.7C679,-223.98 679,-214.71 679,-206.11"/>
<polygon fill="darkgreen" stroke="darkgreen" points="682.5,-206.1 679,-196.1 675.5,-206.1 682.5,-206.1"/>
</g>
<!-- c2017 -->
<g id="node8" class="node">
<title>c2017</title>
<polygon fill="none" stroke="black" points="408,-196 314,-196 314,-160 408,-160 408,-196"/>
<text text-anchor="middle" x="361" y="-174.3" font-family="Times New Roman,serif" font-size="14.00">[2017] TRPO</text>
</g>
<!-- a1999&#45;&gt;c2017 -->
<g id="edge2" class="edge">
<title>a1999&#45;&gt;c2017</title>
<path fill="none" stroke="darkgreen" d="M601.62,-231.97C544.91,-219.48 469.2,-202.82 417.97,-191.54"/>
<polygon fill="darkgreen" stroke="darkgreen" points="418.58,-188.09 408.06,-189.36 417.08,-194.93 418.58,-188.09"/>
</g>
<!-- a2002 -->
<g id="node6" class="node">
<title>a2002</title>
<polygon fill="none" stroke="black" points="399.5,-268 16.5,-268 16.5,-232 399.5,-232 399.5,-268"/>
<text text-anchor="middle" x="208" y="-246.3" font-family="Times New Roman,serif" font-size="14.00">[2002] Approximately optimal approximate reinforcement learning</text>
</g>
<!-- a2002&#45;&gt;c2017 -->
<g id="edge8" class="edge">
<title>a2002&#45;&gt;c2017</title>
<path fill="none" stroke="darkgreen" d="M245.43,-231.88C266.25,-222.35 292.35,-210.41 314.48,-200.28"/>
<polygon fill="darkgreen" stroke="darkgreen" points="316.06,-203.41 323.69,-196.07 313.14,-197.05 316.06,-203.41"/>
</g>
<!-- c2016 -->
<g id="node7" class="node">
<title>c2016</title>
<polygon fill="none" stroke="black" points="284.5,-412 201.5,-412 201.5,-376 284.5,-376 284.5,-412"/>
<text text-anchor="middle" x="243" y="-390.3" font-family="Times New Roman,serif" font-size="14.00">[2016] A3C</text>
</g>
<!-- e2017 -->
<g id="node10" class="node">
<title>e2017</title>
<polygon fill="none" stroke="black" points="348.5,-124 265.5,-124 265.5,-88 348.5,-88 348.5,-124"/>
<text text-anchor="middle" x="307" y="-102.3" font-family="Times New Roman,serif" font-size="14.00">[2017] PPO</text>
</g>
<!-- c2017&#45;&gt;e2017 -->
<g id="edge1" class="edge">
<title>c2017&#45;&gt;e2017</title>
<path fill="none" stroke="darkgreen" d="M347.65,-159.7C341.24,-151.39 333.44,-141.28 326.39,-132.14"/>
<polygon fill="darkgreen" stroke="darkgreen" points="329.07,-129.88 320.19,-124.1 323.53,-134.16 329.07,-129.88"/>
</g>
<!-- f2017 -->
<g id="node11" class="node">
<title>f2017</title>
<polygon fill="none" stroke="black" points="461,-124 367,-124 367,-88 461,-88 461,-124"/>
<text text-anchor="middle" x="414" y="-102.3" font-family="Times New Roman,serif" font-size="14.00">[2017] ACER</text>
</g>
<!-- c2017&#45;&gt;f2017 -->
<g id="edge7" class="edge">
<title>c2017&#45;&gt;f2017</title>
<path fill="none" stroke="darkgreen" d="M374.1,-159.7C380.39,-151.39 388.05,-141.28 394.96,-132.14"/>
<polygon fill="darkgreen" stroke="darkgreen" points="397.8,-134.19 401.05,-124.1 392.22,-129.96 397.8,-134.19"/>
</g>
<!-- d2017 -->
<g id="node9" class="node">
<title>d2017</title>
<polygon fill="none" stroke="black" points="371,-52 243,-52 243,-16 371,-16 371,-52"/>
<text text-anchor="middle" x="307" y="-30.3" font-family="Times New Roman,serif" font-size="14.00">[2017] PPO&#45;Penalty</text>
</g>
<!-- e2017&#45;&gt;d2017 -->
<g id="edge3" class="edge">
<title>e2017&#45;&gt;d2017</title>
<path fill="none" stroke="darkgreen" d="M307,-87.7C307,-79.98 307,-70.71 307,-62.11"/>
<polygon fill="darkgreen" stroke="darkgreen" points="310.5,-62.1 307,-52.1 303.5,-62.1 310.5,-62.1"/>
</g>
</g>
</svg>
