<?xml version="1.0" encoding="UTF-8" standalone="no"?>
<!DOCTYPE svg PUBLIC "-//W3C//DTD SVG 1.1//EN"
 "http://www.w3.org/Graphics/SVG/1.1/DTD/svg11.dtd">
<!-- Generated by graphviz version 2.44.1 (20200629.0846)
 -->
<!-- Title: ML_Math Pages: 1 -->
<svg width="958pt" height="387pt"
 viewBox="0.00 0.00 958.00 387.00" xmlns="http://www.w3.org/2000/svg" xmlns:xlink="http://www.w3.org/1999/xlink">
<g id="graph0" class="graph" transform="scale(1 1) rotate(0) translate(4 383)">
<title>ML_Math</title>
<polygon fill="white" stroke="transparent" points="-4,4 -4,-383 954,-383 954,4 -4,4"/>
<g id="clust3" class="cluster">
<title>cluster_pg</title>
<polygon fill="none" stroke="black" stroke-dasharray="5,2" points="8,-8 8,-371 942,-371 942,-8 8,-8"/>
<text text-anchor="middle" x="475" y="-355.8" font-family="Times,serif" font-size="14.00">Policy Gradient</text>
</g>
<!-- a1992 -->
<g id="node1" class="node">
<title>a1992</title>
<polygon fill="none" stroke="black" points="900.5,-340 769.5,-340 769.5,-304 900.5,-304 900.5,-340"/>
<text text-anchor="middle" x="835" y="-318.3" font-family="Times,serif" font-size="14.00">[1992] REINFORCE</text>
</g>
<!-- a1999 -->
<g id="node3" class="node">
<title>a1999</title>
<polygon fill="none" stroke="black" points="934,-268 418,-268 418,-232 934,-232 934,-268"/>
<text text-anchor="middle" x="676" y="-246.3" font-family="Times,serif" font-size="14.00">[1999] Policy Gradient Methods for Reinforcement Learning with Function Approximation</text>
</g>
<!-- a1992&#45;&gt;a1999 -->
<g id="edge5" class="edge">
<title>a1992&#45;&gt;a1999</title>
<path fill="none" stroke="darkgreen" d="M796.1,-303.88C774.37,-294.31 747.1,-282.3 724.04,-272.15"/>
<polygon fill="darkgreen" stroke="darkgreen" points="725.33,-268.89 714.77,-268.07 722.51,-275.3 725.33,-268.89"/>
</g>
<!-- a1994 -->
<g id="node2" class="node">
<title>a1994</title>
<polygon fill="none" stroke="black" points="751.5,-340 212.5,-340 212.5,-304 751.5,-304 751.5,-340"/>
<text text-anchor="middle" x="482" y="-318.3" font-family="Times,serif" font-size="14.00">[1994] Reinforcement Learning Algorithm for Partially Observable Markov Decision Problems</text>
</g>
<!-- a1994&#45;&gt;a1999 -->
<g id="edge6" class="edge">
<title>a1994&#45;&gt;a1999</title>
<path fill="none" stroke="darkgreen" d="M529.46,-303.88C556.57,-294.09 590.74,-281.77 619.26,-271.47"/>
<polygon fill="darkgreen" stroke="darkgreen" points="620.48,-274.75 628.7,-268.07 618.1,-268.17 620.48,-274.75"/>
</g>
<!-- a2001 -->
<g id="node4" class="node">
<title>a2001</title>
<polygon fill="none" stroke="black" points="774.5,-196 577.5,-196 577.5,-160 774.5,-160 774.5,-196"/>
<text text-anchor="middle" x="676" y="-174.3" font-family="Times,serif" font-size="14.00">[2001] A Natural Policy Gradient</text>
</g>
<!-- a1999&#45;&gt;a2001 -->
<g id="edge4" class="edge">
<title>a1999&#45;&gt;a2001</title>
<path fill="none" stroke="darkgreen" d="M676,-231.7C676,-223.98 676,-214.71 676,-206.11"/>
<polygon fill="darkgreen" stroke="darkgreen" points="679.5,-206.1 676,-196.1 672.5,-206.1 679.5,-206.1"/>
</g>
<!-- c2017 -->
<g id="node7" class="node">
<title>c2017</title>
<polygon fill="none" stroke="black" points="406.5,-196 315.5,-196 315.5,-160 406.5,-160 406.5,-196"/>
<text text-anchor="middle" x="361" y="-174.3" font-family="Times,serif" font-size="14.00">[2017] TRPO</text>
</g>
<!-- a1999&#45;&gt;c2017 -->
<g id="edge2" class="edge">
<title>a1999&#45;&gt;c2017</title>
<path fill="none" stroke="darkgreen" d="M599.35,-231.97C542.83,-219.41 467.27,-202.62 416.51,-191.34"/>
<polygon fill="darkgreen" stroke="darkgreen" points="417.22,-187.91 406.7,-189.16 415.7,-194.74 417.22,-187.91"/>
</g>
<!-- a2002 -->
<g id="node5" class="node">
<title>a2002</title>
<polygon fill="none" stroke="black" points="400,-268 16,-268 16,-232 400,-232 400,-268"/>
<text text-anchor="middle" x="208" y="-246.3" font-family="Times,serif" font-size="14.00">[2002] Approximately optimal approximate reinforcement learning</text>
</g>
<!-- a2002&#45;&gt;c2017 -->
<g id="edge8" class="edge">
<title>a2002&#45;&gt;c2017</title>
<path fill="none" stroke="darkgreen" d="M245.43,-231.88C266.25,-222.35 292.35,-210.41 314.48,-200.28"/>
<polygon fill="darkgreen" stroke="darkgreen" points="316.06,-203.41 323.69,-196.07 313.14,-197.05 316.06,-203.41"/>
</g>
<!-- c2016 -->
<g id="node6" class="node">
<title>c2016</title>
<polygon fill="none" stroke="black" points="162.5,-340 81.5,-340 81.5,-304 162.5,-304 162.5,-340"/>
<text text-anchor="middle" x="122" y="-318.3" font-family="Times,serif" font-size="14.00">[2016] A3C</text>
</g>
<!-- e2017 -->
<g id="node9" class="node">
<title>e2017</title>
<polygon fill="none" stroke="black" points="348.5,-124 267.5,-124 267.5,-88 348.5,-88 348.5,-124"/>
<text text-anchor="middle" x="308" y="-102.3" font-family="Times,serif" font-size="14.00">[2017] PPO</text>
</g>
<!-- c2017&#45;&gt;e2017 -->
<g id="edge1" class="edge">
<title>c2017&#45;&gt;e2017</title>
<path fill="none" stroke="darkgreen" d="M347.9,-159.7C341.61,-151.39 333.95,-141.28 327.04,-132.14"/>
<polygon fill="darkgreen" stroke="darkgreen" points="329.78,-129.96 320.95,-124.1 324.2,-134.19 329.78,-129.96"/>
</g>
<!-- f2017 -->
<g id="node10" class="node">
<title>f2017</title>
<polygon fill="none" stroke="black" points="459,-124 367,-124 367,-88 459,-88 459,-124"/>
<text text-anchor="middle" x="413" y="-102.3" font-family="Times,serif" font-size="14.00">[2017] ACER</text>
</g>
<!-- c2017&#45;&gt;f2017 -->
<g id="edge7" class="edge">
<title>c2017&#45;&gt;f2017</title>
<path fill="none" stroke="darkgreen" d="M373.85,-159.7C380.03,-151.39 387.54,-141.28 394.32,-132.14"/>
<polygon fill="darkgreen" stroke="darkgreen" points="397.14,-134.22 400.29,-124.1 391.52,-130.04 397.14,-134.22"/>
</g>
<!-- d2017 -->
<g id="node8" class="node">
<title>d2017</title>
<polygon fill="none" stroke="black" points="371,-52 245,-52 245,-16 371,-16 371,-52"/>
<text text-anchor="middle" x="308" y="-30.3" font-family="Times,serif" font-size="14.00">[2017] PPO&#45;Penalty</text>
</g>
<!-- e2017&#45;&gt;d2017 -->
<g id="edge3" class="edge">
<title>e2017&#45;&gt;d2017</title>
<path fill="none" stroke="darkgreen" d="M308,-87.7C308,-79.98 308,-70.71 308,-62.11"/>
<polygon fill="darkgreen" stroke="darkgreen" points="311.5,-62.1 308,-52.1 304.5,-62.1 311.5,-62.1"/>
</g>
</g>
</svg>
