<?xml version="1.0" encoding="UTF-8" standalone="no"?>
<!DOCTYPE svg PUBLIC "-//W3C//DTD SVG 1.1//EN"
 "http://www.w3.org/Graphics/SVG/1.1/DTD/svg11.dtd">
<!-- Generated by graphviz version 2.44.1 (20200629.0800)
 -->
<!-- Title: PG Pages: 1 -->
<svg width="1208pt" height="620pt"
 viewBox="0.00 0.00 1208.00 620.00" xmlns="http://www.w3.org/2000/svg" xmlns:xlink="http://www.w3.org/1999/xlink">
<g id="graph0" class="graph" transform="scale(1 1) rotate(0) translate(4 616)">
<title>PG</title>
<polygon fill="white" stroke="transparent" points="-4,4 -4,-616 1204,-616 1204,4 -4,4"/>
<!-- 1988 -->
<g id="node1" class="node">
<title>1988</title>
<text text-anchor="middle" x="27" y="-590.3" font-family="Times New Roman,serif" font-size="14.00">1988</text>
</g>
<!-- 1992 -->
<g id="node2" class="node">
<title>1992</title>
<text text-anchor="middle" x="27" y="-518.3" font-family="Times New Roman,serif" font-size="14.00">1992</text>
</g>
<!-- 1988&#45;&gt;1992 -->
<g id="edge1" class="edge">
<title>1988&#45;&gt;1992</title>
<path fill="none" stroke="black" stroke-dasharray="5,2" d="M27,-575.7C27,-567.98 27,-558.71 27,-550.11"/>
<polygon fill="black" stroke="black" points="30.5,-550.1 27,-540.1 23.5,-550.1 30.5,-550.1"/>
</g>
<!-- 1994 -->
<g id="node3" class="node">
<title>1994</title>
<text text-anchor="middle" x="27" y="-446.3" font-family="Times New Roman,serif" font-size="14.00">1994</text>
</g>
<!-- 1992&#45;&gt;1994 -->
<g id="edge2" class="edge">
<title>1992&#45;&gt;1994</title>
<path fill="none" stroke="black" stroke-dasharray="5,2" d="M27,-503.7C27,-495.98 27,-486.71 27,-478.11"/>
<polygon fill="black" stroke="black" points="30.5,-478.1 27,-468.1 23.5,-478.1 30.5,-478.1"/>
</g>
<!-- 1999 -->
<g id="node4" class="node">
<title>1999</title>
<text text-anchor="middle" x="27" y="-374.3" font-family="Times New Roman,serif" font-size="14.00">1999</text>
</g>
<!-- 1994&#45;&gt;1999 -->
<g id="edge3" class="edge">
<title>1994&#45;&gt;1999</title>
<path fill="none" stroke="black" stroke-dasharray="5,2" d="M27,-431.7C27,-423.98 27,-414.71 27,-406.11"/>
<polygon fill="black" stroke="black" points="30.5,-406.1 27,-396.1 23.5,-406.1 30.5,-406.1"/>
</g>
<!-- 2001 -->
<g id="node5" class="node">
<title>2001</title>
<text text-anchor="middle" x="27" y="-302.3" font-family="Times New Roman,serif" font-size="14.00">2001</text>
</g>
<!-- 1999&#45;&gt;2001 -->
<g id="edge4" class="edge">
<title>1999&#45;&gt;2001</title>
<path fill="none" stroke="black" stroke-dasharray="5,2" d="M27,-359.7C27,-351.98 27,-342.71 27,-334.11"/>
<polygon fill="black" stroke="black" points="30.5,-334.1 27,-324.1 23.5,-334.1 30.5,-334.1"/>
</g>
<!-- 2002 -->
<g id="node6" class="node">
<title>2002</title>
<text text-anchor="middle" x="27" y="-230.3" font-family="Times New Roman,serif" font-size="14.00">2002</text>
</g>
<!-- 2001&#45;&gt;2002 -->
<g id="edge5" class="edge">
<title>2001&#45;&gt;2002</title>
<path fill="none" stroke="black" stroke-dasharray="5,2" d="M27,-287.7C27,-279.98 27,-270.71 27,-262.11"/>
<polygon fill="black" stroke="black" points="30.5,-262.1 27,-252.1 23.5,-262.1 30.5,-262.1"/>
</g>
<!-- 2006 -->
<g id="node7" class="node">
<title>2006</title>
<text text-anchor="middle" x="27" y="-158.3" font-family="Times New Roman,serif" font-size="14.00">2006</text>
</g>
<!-- 2002&#45;&gt;2006 -->
<g id="edge6" class="edge">
<title>2002&#45;&gt;2006</title>
<path fill="none" stroke="black" stroke-dasharray="5,2" d="M27,-215.7C27,-207.98 27,-198.71 27,-190.11"/>
<polygon fill="black" stroke="black" points="30.5,-190.1 27,-180.1 23.5,-190.1 30.5,-190.1"/>
</g>
<!-- 2016 -->
<g id="node8" class="node">
<title>2016</title>
<text text-anchor="middle" x="27" y="-86.3" font-family="Times New Roman,serif" font-size="14.00">2016</text>
</g>
<!-- 2006&#45;&gt;2016 -->
<g id="edge7" class="edge">
<title>2006&#45;&gt;2016</title>
<path fill="none" stroke="black" stroke-dasharray="5,2" d="M27,-143.7C27,-135.98 27,-126.71 27,-118.11"/>
<polygon fill="black" stroke="black" points="30.5,-118.1 27,-108.1 23.5,-118.1 30.5,-118.1"/>
</g>
<!-- 2017 -->
<g id="node9" class="node">
<title>2017</title>
<text text-anchor="middle" x="27" y="-14.3" font-family="Times New Roman,serif" font-size="14.00">2017</text>
</g>
<!-- 2016&#45;&gt;2017 -->
<g id="edge8" class="edge">
<title>2016&#45;&gt;2017</title>
<path fill="none" stroke="black" stroke-dasharray="5,2" d="M27,-71.7C27,-63.98 27,-54.71 27,-46.11"/>
<polygon fill="black" stroke="black" points="30.5,-46.1 27,-36.1 23.5,-46.1 30.5,-46.1"/>
</g>
<!-- a1988 -->
<g id="node10" class="node">
<title>a1988</title>
<polygon fill="none" stroke="green" points="665.5,-612 252.5,-612 252.5,-576 665.5,-576 665.5,-612"/>
<text text-anchor="middle" x="459" y="-590.3" font-family="Times New Roman,serif" font-size="14.00">On the Use of Backpropagation in Associative Reinforcement Learning</text>
</g>
<!-- a1992 -->
<g id="node11" class="node">
<title>a1992</title>
<polygon fill="none" stroke="green" points="506.5,-540 411.5,-540 411.5,-504 506.5,-504 506.5,-540"/>
<text text-anchor="middle" x="459" y="-518.3" font-family="Times New Roman,serif" font-size="14.00">REINFORCE</text>
</g>
<!-- a1988&#45;&gt;a1992 -->
<g id="edge17" class="edge">
<title>a1988&#45;&gt;a1992</title>
<path fill="none" stroke="darkgreen" d="M459,-575.7C459,-567.98 459,-558.71 459,-550.11"/>
<polygon fill="darkgreen" stroke="darkgreen" points="462.5,-550.1 459,-540.1 455.5,-550.1 462.5,-550.1"/>
</g>
<!-- a1999 -->
<g id="node13" class="node">
<title>a1999</title>
<polygon fill="none" stroke="green" points="790,-396 308,-396 308,-360 790,-360 790,-396"/>
<text text-anchor="middle" x="549" y="-374.3" font-family="Times New Roman,serif" font-size="14.00">Policy Gradient Methods for Reinforcement Learning with Function Approximation</text>
</g>
<!-- a1992&#45;&gt;a1999 -->
<g id="edge13" class="edge">
<title>a1992&#45;&gt;a1999</title>
<path fill="none" stroke="darkgreen" d="M411.35,-514.13C348.88,-503.16 251.38,-478.06 289,-432 301.42,-416.79 334.42,-405.83 372.9,-397.98"/>
<polygon fill="darkgreen" stroke="darkgreen" points="373.65,-401.4 382.8,-396.05 372.31,-394.53 373.65,-401.4"/>
</g>
<!-- bayesian_a_2006 -->
<g id="node21" class="node">
<title>bayesian_a_2006</title>
<polygon fill="none" stroke="blue" points="939,-180 717,-180 717,-144 939,-144 939,-180"/>
<text text-anchor="middle" x="828" y="-158.3" font-family="Times New Roman,serif" font-size="14.00">Bayesian Policy Gradient Algorithms</text>
</g>
<!-- a1992&#45;&gt;bayesian_a_2006 -->
<g id="edge18" class="edge">
<title>a1992&#45;&gt;bayesian_a_2006</title>
<path fill="none" stroke="darkgreen" d="M506.63,-520.28C592.02,-517.96 766.22,-508.29 809,-468 838.45,-440.27 828,-419.45 828,-379 828,-379 828,-379 828,-305 828,-265 828,-218.65 828,-190.08"/>
<polygon fill="darkgreen" stroke="darkgreen" points="831.5,-190.05 828,-180.05 824.5,-190.05 831.5,-190.05"/>
</g>
<!-- a1994 -->
<g id="node12" class="node">
<title>a1994</title>
<polygon fill="none" stroke="green" points="800,-468 298,-468 298,-432 800,-432 800,-468"/>
<text text-anchor="middle" x="549" y="-446.3" font-family="Times New Roman,serif" font-size="14.00">Reinforcement Learning Algorithm for Partially Observable Markov Decision Problems</text>
</g>
<!-- a1994&#45;&gt;a1999 -->
<g id="edge14" class="edge">
<title>a1994&#45;&gt;a1999</title>
<path fill="none" stroke="darkgreen" d="M549,-431.7C549,-423.98 549,-414.71 549,-406.11"/>
<polygon fill="darkgreen" stroke="darkgreen" points="552.5,-406.1 549,-396.1 545.5,-406.1 552.5,-406.1"/>
</g>
<!-- a2001 -->
<g id="node14" class="node">
<title>a2001</title>
<polygon fill="none" stroke="green" points="629.5,-324 468.5,-324 468.5,-288 629.5,-288 629.5,-324"/>
<text text-anchor="middle" x="549" y="-302.3" font-family="Times New Roman,serif" font-size="14.00">A Natural Policy Gradient</text>
</g>
<!-- a1999&#45;&gt;a2001 -->
<g id="edge12" class="edge">
<title>a1999&#45;&gt;a2001</title>
<path fill="none" stroke="darkgreen" d="M549,-359.7C549,-351.98 549,-342.71 549,-334.11"/>
<polygon fill="darkgreen" stroke="darkgreen" points="552.5,-334.1 549,-324.1 545.5,-334.1 552.5,-334.1"/>
</g>
<!-- c2017 -->
<g id="node17" class="node">
<title>c2017</title>
<polygon fill="none" stroke="green" points="870,-36 816,-36 816,0 870,0 870,-36"/>
<text text-anchor="middle" x="843" y="-14.3" font-family="Times New Roman,serif" font-size="14.00">TRPO</text>
</g>
<!-- a1999&#45;&gt;c2017 -->
<g id="edge10" class="edge">
<title>a1999&#45;&gt;c2017</title>
<path fill="none" stroke="darkgreen" d="M589.8,-359.83C606.54,-351.13 625,-339.15 638,-324 665.78,-291.61 674,-277.67 674,-235 674,-235 674,-235 674,-161 674,-92.38 756.68,-50.28 806.38,-31.17"/>
<polygon fill="darkgreen" stroke="darkgreen" points="807.69,-34.42 815.85,-27.66 805.25,-27.86 807.69,-34.42"/>
</g>
<!-- a2002 -->
<g id="node15" class="node">
<title>a2002</title>
<polygon fill="none" stroke="green" points="1200,-252 856,-252 856,-216 1200,-216 1200,-252"/>
<text text-anchor="middle" x="1028" y="-230.3" font-family="Times New Roman,serif" font-size="14.00">Approximately optimal approximate reinforcement learning</text>
</g>
<!-- a2002&#45;&gt;c2017 -->
<g id="edge16" class="edge">
<title>a2002&#45;&gt;c2017</title>
<path fill="none" stroke="darkgreen" d="M1013.17,-215.85C980.56,-178.13 902.5,-87.83 864.51,-43.88"/>
<polygon fill="darkgreen" stroke="darkgreen" points="867.08,-41.51 857.9,-36.23 861.79,-46.09 867.08,-41.51"/>
</g>
<!-- a2016 -->
<g id="node16" class="node">
<title>a2016</title>
<polygon fill="none" stroke="green" points="1110,-108 1056,-108 1056,-72 1110,-72 1110,-108"/>
<text text-anchor="middle" x="1083" y="-86.3" font-family="Times New Roman,serif" font-size="14.00">A3C</text>
</g>
<!-- a2017 -->
<g id="node19" class="node">
<title>a2017</title>
<polygon fill="none" stroke="green" points="1014,-36 960,-36 960,0 1014,0 1014,-36"/>
<text text-anchor="middle" x="987" y="-14.3" font-family="Times New Roman,serif" font-size="14.00">PPO</text>
</g>
<!-- c2017&#45;&gt;a2017 -->
<g id="edge9" class="edge">
<title>c2017&#45;&gt;a2017</title>
<path fill="none" stroke="darkgreen" d="M860.08,-36.22C867.85,-43.2 877.62,-50.36 888,-54 910.65,-61.94 919.35,-61.94 942,-54 949.14,-51.5 955.99,-47.33 962.09,-42.7"/>
<polygon fill="darkgreen" stroke="darkgreen" points="964.45,-45.29 969.92,-36.22 959.99,-39.9 964.45,-45.29"/>
</g>
<!-- b2017 -->
<g id="node20" class="node">
<title>b2017</title>
<polygon fill="none" stroke="green" points="942,-36 888,-36 888,0 942,0 942,-36"/>
<text text-anchor="middle" x="915" y="-14.3" font-family="Times New Roman,serif" font-size="14.00">ACER</text>
</g>
<!-- c2017&#45;&gt;b2017 -->
<g id="edge15" class="edge">
<title>c2017&#45;&gt;b2017</title>
<path fill="none" stroke="darkgreen" d="M870.28,-18C872.74,-18 875.19,-18 877.65,-18"/>
<polygon fill="darkgreen" stroke="darkgreen" points="877.75,-21.5 887.75,-18 877.75,-14.5 877.75,-21.5"/>
</g>
<!-- d2017 -->
<g id="node18" class="node">
<title>d2017</title>
<polygon fill="none" stroke="green" points="1121.5,-36 1032.5,-36 1032.5,0 1121.5,0 1121.5,-36"/>
<text text-anchor="middle" x="1077" y="-14.3" font-family="Times New Roman,serif" font-size="14.00">PPO&#45;Penalty</text>
</g>
<!-- a2017&#45;&gt;d2017 -->
<g id="edge11" class="edge">
<title>a2017&#45;&gt;d2017</title>
<path fill="none" stroke="darkgreen" d="M1014.07,-18C1016.72,-18 1019.38,-18 1022.03,-18"/>
<polygon fill="darkgreen" stroke="darkgreen" points="1022.26,-21.5 1032.26,-18 1022.26,-14.5 1022.26,-21.5"/>
</g>
</g>
</svg>
